<svg xmlns="http://www.w3.org/2000/svg" xmlns:xlink="http://www.w3.org/1999/xlink" id="body_1" preserveAspectRatio="xMinYMin meet" viewBox="0 0 816 1056"><defs><clipPath id="1"><path id="" clip-rule="evenodd" transform="matrix(1 0 0 1 0 0)" d="M0 792L0 0L0 0L612 0L612 0L612 792L612 792L0 792z" /></clipPath><clipPath id="2"><path id="" clip-rule="evenodd" transform="matrix(1 0 0 1 0 0)" d="M8.503906 11.00513L603.4961 11.00513L603.4961 11.00513L603.4961 780.9949L603.4961 780.9949L8.503906 780.9949z" /></clipPath><clipPath id="3"><path id="" clip-rule="evenodd" transform="matrix(1 0 0 1 0 0)" d="M8.503906 780.9949L603.4961 780.9949L603.4961 780.9949L603.4961 11.005L603.4961 11.005L8.503906 11.005z" /></clipPath><clipPath id="4"><path id="" clip-rule="evenodd" transform="matrix(1 0 0 1 0 0)" d="M8.503906 780.9949L603.4961 780.9949L603.4961 780.9949L603.4961 11.005L603.4961 11.005L8.503906 11.005z" /></clipPath><clipPath id="5"><path id="" clip-rule="evenodd" transform="matrix(1 0 0 1 0 0)" d="M8.503906 11.00513L603.4961 11.00513L603.4961 11.00513L603.4961 780.9949L603.4961 780.9949L8.503906 780.9949z" /></clipPath><clipPath id="6"><path id="" clip-rule="evenodd" transform="matrix(1 0 0 1 0 0)" d="M8.503906 780.9949L603.4961 780.9949L603.4961 780.9949L603.4961 11.005L603.4961 11.005L8.503906 11.005z" /></clipPath><clipPath id="7"><path id="" clip-rule="evenodd" transform="matrix(1 0 0 1 0 0)" d="M53.34952 764.8854L55.0344 767.8036L55.0344 767.8036L57.72726 767.8036L57.72726 767.8036L53.34952 760.2213z" /></clipPath><clipPath id="8"><path id="" clip-rule="evenodd" transform="matrix(1 0 0 1 0 0)" d="M8.503906 780.9949L603.4961 780.9949L603.4961 780.9949L603.4961 11.005L603.4961 11.005L8.503906 11.005z" /></clipPath><linearGradient gradientUnits="userSpaceOnUse" transform="matrix(1 0 0 1 0 0)" id="1723" x1="55.53816" y1="24.19639" x2="55.53816" y2="31.77845"><stop stop-color="#35485E" offset="0%" /><stop stop-color="#36495E" offset="1%" /><stop stop-color="#36495E" offset="2%" /><stop stop-color="#35485D" offset="3%" /><stop stop-color="#35485D" offset="4%" /><stop stop-color="#34475C" offset="5%" /><stop stop-color="#34475C" offset="6%" /><stop stop-color="#33465B" offset="7%" /><stop stop-color="#33465B" offset="8%" /><stop stop-color="#32455A" offset="9%" /><stop stop-color="#32455A" offset="10%" /><stop stop-color="#32455A" offset="11%" /><stop stop-color="#314459" offset="12%" /><stop stop-color="#314459" offset="13%" /><stop stop-color="#304358" offset="14%" /><stop stop-color="#304358" offset="15%" /><stop stop-color="#2F4257" offset="16%" /><stop stop-color="#2F4157" offset="17%" /><stop stop-color="#2E4156" offset="18%" /><stop stop-color="#2E4156" offset="19%" /><stop stop-color="#2E4156" offset="20%" /><stop stop-color="#2D4055" offset="21%" /><stop stop-color="#2D4055" offset="22%" /><stop stop-color="#2C3F54" offset="23%" /><stop stop-color="#2B3E54" offset="24%" /><stop stop-color="#2B3E53" offset="25%" /><stop stop-color="#2B3D53" offset="26%" /><stop stop-color="#2A3D52" offset="27%" /><stop stop-color="#2A3C52" offset="28%" /><stop stop-color="#293C52" offset="29%" /><stop stop-color="#293C51" offset="30%" /><stop stop-color="#283B51" offset="31%" /><stop stop-color="#283B50" offset="32%" /><stop stop-color="#283A50" offset="33%" /><stop stop-color="#273A4F" offset="34%" /><stop stop-color="#27394F" offset="35%" /><stop stop-color="#26394E" offset="36%" /><stop stop-color="#26384E" offset="37%" /><stop stop-color="#25384E" offset="38%" /><stop stop-color="#25384D" offset="39%" /><stop stop-color="#24374D" offset="40%" /><stop stop-color="#24364C" offset="41%" /><stop stop-color="#24364C" offset="42%" /><stop stop-color="#23364B" offset="43%" /><stop stop-color="#23354B" offset="44%" /><stop stop-color="#22354B" offset="45%" /><stop stop-color="#22344A" offset="46%" /><stop stop-color="#21344A" offset="47%" /><stop stop-color="#213349" offset="48%" /><stop stop-color="#203349" offset="49%" /><stop stop-color="#203349" offset="50%" /><stop stop-color="#203349" offset="51%" /><stop stop-color="#1F3248" offset="52%" /><stop stop-color="#1F3147" offset="53%" /><stop stop-color="#1E3147" offset="54%" /><stop stop-color="#1E3046" offset="55%" /><stop stop-color="#1D3046" offset="56%" /><stop stop-color="#1D2F46" offset="57%" /><stop stop-color="#1C2F45" offset="58%" /><stop stop-color="#1C2F45" offset="59%" /><stop stop-color="#1C2E44" offset="60%" /><stop stop-color="#1B2D44" offset="61%" /><stop stop-color="#1B2D43" offset="62%" /><stop stop-color="#1A2D43" offset="63%" /><stop stop-color="#1A2C43" offset="64%" /><stop stop-color="#192C42" offset="65%" /><stop stop-color="#192B42" offset="66%" /><stop stop-color="#192B41" offset="67%" /><stop stop-color="#182A41" offset="68%" /><stop stop-color="#182A40" offset="69%" /><stop stop-color="#172940" offset="70%" /><stop stop-color="#17293F" offset="71%" /><stop stop-color="#16293F" offset="72%" /><stop stop-color="#16283F" offset="73%" /><stop stop-color="#15283E" offset="74%" /><stop stop-color="#15273E" offset="75%" /><stop stop-color="#15273D" offset="76%" /><stop stop-color="#14263D" offset="77%" /><stop stop-color="#14263C" offset="78%" /><stop stop-color="#14263C" offset="79%" /><stop stop-color="#13253C" offset="80%" /><stop stop-color="#12243B" offset="81%" /><stop stop-color="#12243B" offset="82%" /><stop stop-color="#11243A" offset="83%" /><stop stop-color="#11233A" offset="84%" /><stop stop-color="#112339" offset="85%" /><stop stop-color="#112339" offset="86%" /><stop stop-color="#102239" offset="87%" /><stop stop-color="#102239" offset="88%" /><stop stop-color="#0F2138" offset="89%" /><stop stop-color="#0F2138" offset="90%" /><stop stop-color="#0E2037" offset="91%" /><stop stop-color="#0D2036" offset="92%" /><stop stop-color="#0D2036" offset="93%" /><stop stop-color="#0D1F36" offset="94%" /><stop stop-color="#0D1F36" offset="95%" /><stop stop-color="#0C1E35" offset="96%" /><stop stop-color="#0C1E35" offset="97%" /><stop stop-color="#091B32" offset="98%" /><stop stop-color="#091B32" offset="99%" /><stop stop-color="#091B32" offset="100%" /></linearGradient><clipPath id="9"><path id="" clip-rule="evenodd" transform="matrix(1 0 0 1 0 0)" d="M60.62662 767.8036L60.64482 767.8036L60.64482 767.8036L60.64482 767.8015z" /></clipPath><clipPath id="10"><path id="" clip-rule="evenodd" transform="matrix(1 0 0 1 0 0)" d="M8.503906 780.9949L603.4961 780.9949L603.4961 780.9949L603.4961 11.005L603.4961 11.005L8.503906 11.005z" /></clipPath><clipPath id="11"><path id="" clip-rule="evenodd" transform="matrix(1 0 0 1 0 0)" d="M8.503906 11.00513L603.4961 11.00513L603.4961 11.00513L603.4961 780.9949L603.4961 780.9949L8.503906 780.9949z" /></clipPath><clipPath id="12"><path id="" clip-rule="evenodd" transform="matrix(1 0 0 1 0 0)" d="M8.503906 780.9949L603.4961 780.9949L603.4961 780.9949L603.4961 11.005L603.4961 11.005L8.503906 11.005z" /></clipPath><clipPath id="13"><path id="" clip-rule="evenodd" transform="matrix(1 0 0 1 0 0)" d="M69.38141 767.8036L69.40031 767.8036L69.40031 767.8036L69.39961 767.8015z" /></clipPath><clipPath id="14"><path id="" clip-rule="evenodd" transform="matrix(1 0 0 1 0 0)" d="M8.503906 780.9949L603.4961 780.9949L603.4961 780.9949L603.4961 11.005L603.4961 11.005L8.503906 11.005z" /></clipPath><clipPath id="15"><path id="" clip-rule="evenodd" transform="matrix(1 0 0 1 0 0)" d="M57.72726 767.8036L60.41942 767.8036L60.41942 767.8036L62.1043 764.8854L62.1043 764.8854L62.1043 760.2213z" /></clipPath><clipPath id="16"><path id="" clip-rule="evenodd" transform="matrix(1 0 0 1 0 0)" d="M8.503906 780.9949L603.4961 780.9949L603.4961 780.9949L603.4961 11.005L603.4961 11.005L8.503906 11.005z" /></clipPath><linearGradient gradientUnits="userSpaceOnUse" transform="matrix(1 0 0 1 0 0)" id="7745" x1="59.91568" y1="24.19639" x2="59.91568" y2="31.77845"><stop stop-color="#35485E" offset="0%" /><stop stop-color="#35485D" offset="1%" /><stop stop-color="#35485D" offset="2%" /><stop stop-color="#34475C" offset="3%" /><stop stop-color="#34475C" offset="4%" /><stop stop-color="#33465B" offset="5%" /><stop stop-color="#33465B" offset="6%" /><stop stop-color="#32455A" offset="7%" /><stop stop-color="#32455A" offset="8%" /><stop stop-color="#32445A" offset="9%" /><stop stop-color="#314459" offset="10%" /><stop stop-color="#314459" offset="11%" /><stop stop-color="#304358" offset="12%" /><stop stop-color="#304358" offset="13%" /><stop stop-color="#2F4257" offset="14%" /><stop stop-color="#2F4257" offset="15%" /><stop stop-color="#2E4157" offset="16%" /><stop stop-color="#2E4156" offset="17%" /><stop stop-color="#2E4056" offset="18%" /><stop stop-color="#2D4055" offset="19%" /><stop stop-color="#2D4055" offset="20%" /><stop stop-color="#2C3F54" offset="21%" /><stop stop-color="#2C3F54" offset="22%" /><stop stop-color="#2B3E54" offset="23%" /><stop stop-color="#2B3E53" offset="24%" /><stop stop-color="#2A3D53" offset="25%" /><stop stop-color="#2A3D52" offset="26%" /><stop stop-color="#2A3C52" offset="27%" /><stop stop-color="#293C52" offset="28%" /><stop stop-color="#293B51" offset="29%" /><stop stop-color="#283B51" offset="30%" /><stop stop-color="#283B50" offset="31%" /><stop stop-color="#273A50" offset="32%" /><stop stop-color="#273A4F" offset="33%" /><stop stop-color="#26394F" offset="34%" /><stop stop-color="#26394E" offset="35%" /><stop stop-color="#26384E" offset="36%" /><stop stop-color="#25384E" offset="37%" /><stop stop-color="#25374D" offset="38%" /><stop stop-color="#24374D" offset="39%" /><stop stop-color="#24364C" offset="40%" /><stop stop-color="#23364C" offset="41%" /><stop stop-color="#23364B" offset="42%" /><stop stop-color="#23354B" offset="43%" /><stop stop-color="#22354B" offset="44%" /><stop stop-color="#22344A" offset="45%" /><stop stop-color="#21344A" offset="46%" /><stop stop-color="#213349" offset="47%" /><stop stop-color="#203349" offset="48%" /><stop stop-color="#203248" offset="49%" /><stop stop-color="#1F3248" offset="50%" /><stop stop-color="#1F3248" offset="51%" /><stop stop-color="#1F3147" offset="52%" /><stop stop-color="#1E3147" offset="53%" /><stop stop-color="#1E3046" offset="54%" /><stop stop-color="#1D3046" offset="55%" /><stop stop-color="#1D2F45" offset="56%" /><stop stop-color="#1C2F45" offset="57%" /><stop stop-color="#1C2E45" offset="58%" /><stop stop-color="#1C2E44" offset="59%" /><stop stop-color="#1B2D44" offset="60%" /><stop stop-color="#1B2D43" offset="61%" /><stop stop-color="#1A2D43" offset="62%" /><stop stop-color="#1A2C42" offset="63%" /><stop stop-color="#192C42" offset="64%" /><stop stop-color="#192B42" offset="65%" /><stop stop-color="#192B41" offset="66%" /><stop stop-color="#182A41" offset="67%" /><stop stop-color="#182A40" offset="68%" /><stop stop-color="#172940" offset="69%" /><stop stop-color="#17293F" offset="70%" /><stop stop-color="#16293F" offset="71%" /><stop stop-color="#16283E" offset="72%" /><stop stop-color="#15283E" offset="73%" /><stop stop-color="#15273E" offset="74%" /><stop stop-color="#15273D" offset="75%" /><stop stop-color="#14263D" offset="76%" /><stop stop-color="#14263C" offset="77%" /><stop stop-color="#13253C" offset="78%" /><stop stop-color="#13253C" offset="79%" /><stop stop-color="#12243B" offset="80%" /><stop stop-color="#12243B" offset="81%" /><stop stop-color="#11243A" offset="82%" /><stop stop-color="#11233A" offset="83%" /><stop stop-color="#112339" offset="84%" /><stop stop-color="#102239" offset="85%" /><stop stop-color="#102239" offset="86%" /><stop stop-color="#0F2138" offset="87%" /><stop stop-color="#0F2138" offset="88%" /><stop stop-color="#0E2037" offset="89%" /><stop stop-color="#0E2037" offset="90%" /><stop stop-color="#0D2036" offset="91%" /><stop stop-color="#0D1F36" offset="92%" /><stop stop-color="#0D1F36" offset="93%" /><stop stop-color="#0C1E35" offset="94%" /><stop stop-color="#0C1E35" offset="95%" /><stop stop-color="#0B1D34" offset="96%" /><stop stop-color="#0B1D34" offset="97%" /><stop stop-color="#091B32" offset="98%" /><stop stop-color="#091B32" offset="99%" /><stop stop-color="#091B32" offset="100%" /></linearGradient><clipPath id="17"><path id="" clip-rule="evenodd" transform="matrix(1 0 0 1 0 0)" d="M57.72726 762.7483L57.72726 762.7511L57.72726 762.7511L57.72586 762.7476L57.72586 762.7476L53.34952 755.1674L53.34952 755.1674L46.05351 767.8036L46.05351 767.8036L48.97177 767.8036L48.97177 767.8036L53.34952 760.2213L53.34952 760.2213L57.72586 767.8015L57.72586 767.8015L57.72726 767.7959L57.72726 767.7959L57.72726 767.8036L57.72726 767.8036L62.1043 760.2213L62.1043 760.2213L66.48204 767.8036L66.48204 767.8036L69.40031 767.8036L69.40031 767.8036L62.1043 755.1674z" /></clipPath><clipPath id="18"><path id="" clip-rule="evenodd" transform="matrix(1 0 0 1 0 0)" d="M8.503906 780.9949L603.4961 780.9949L603.4961 780.9949L603.4961 11.005L603.4961 11.005L8.503906 11.005z" /></clipPath><linearGradient gradientUnits="userSpaceOnUse" transform="matrix(1 0 0 1 0 0)" id="12856" x1="57.72692" y1="24.19639" x2="57.72692" y2="36.83315"><stop stop-color="#40B681" offset="0%" /><stop stop-color="#40B681" offset="1%" /><stop stop-color="#40B681" offset="2%" /><stop stop-color="#40B681" offset="3%" /><stop stop-color="#40B681" offset="4%" /><stop stop-color="#40B681" offset="5%" /><stop stop-color="#40B681" offset="6%" /><stop stop-color="#40B681" offset="7%" /><stop stop-color="#40B681" offset="8%" /><stop stop-color="#40B681" offset="9%" /><stop stop-color="#40B681" offset="10%" /><stop stop-color="#40B681" offset="11%" /><stop stop-color="#40B681" offset="12%" /><stop stop-color="#40B681" offset="13%" /><stop stop-color="#40B681" offset="14%" /><stop stop-color="#40B681" offset="15%" /><stop stop-color="#40B681" offset="16%" /><stop stop-color="#40B681" offset="17%" /><stop stop-color="#40B681" offset="18%" /><stop stop-color="#40B681" offset="19%" /><stop stop-color="#40B681" offset="20%" /><stop stop-color="#42B782" offset="21%" /><stop stop-color="#43B881" offset="22%" /><stop stop-color="#44B881" offset="23%" /><stop stop-color="#45B881" offset="24%" /><stop stop-color="#45B980" offset="25%" /><stop stop-color="#46B980" offset="26%" /><stop stop-color="#47B980" offset="27%" /><stop stop-color="#48BA7F" offset="28%" /><stop stop-color="#48BA7F" offset="29%" /><stop stop-color="#4ABA7F" offset="30%" /><stop stop-color="#4ABB7F" offset="31%" /><stop stop-color="#4BBB7E" offset="32%" /><stop stop-color="#4CBB7E" offset="33%" /><stop stop-color="#4DBC7E" offset="34%" /><stop stop-color="#4DBC7E" offset="35%" /><stop stop-color="#4FBC7D" offset="36%" /><stop stop-color="#50BD7D" offset="37%" /><stop stop-color="#51BD7C" offset="38%" /><stop stop-color="#51BD7C" offset="39%" /><stop stop-color="#52BE7C" offset="40%" /><stop stop-color="#53BE7B" offset="41%" /><stop stop-color="#54BE7B" offset="42%" /><stop stop-color="#55BE7B" offset="43%" /><stop stop-color="#56BF7B" offset="44%" /><stop stop-color="#57BF7A" offset="45%" /><stop stop-color="#57BF7A" offset="46%" /><stop stop-color="#58C07A" offset="47%" /><stop stop-color="#59C079" offset="48%" /><stop stop-color="#5AC079" offset="49%" /><stop stop-color="#5BC179" offset="50%" /><stop stop-color="#5CC178" offset="51%" /><stop stop-color="#5DC178" offset="52%" /><stop stop-color="#5DC278" offset="53%" /><stop stop-color="#5EC277" offset="54%" /><stop stop-color="#5FC277" offset="55%" /><stop stop-color="#60C377" offset="56%" /><stop stop-color="#61C376" offset="57%" /><stop stop-color="#62C376" offset="58%" /><stop stop-color="#63C476" offset="59%" /><stop stop-color="#63C476" offset="60%" /><stop stop-color="#64C475" offset="61%" /><stop stop-color="#65C575" offset="62%" /><stop stop-color="#66C575" offset="63%" /><stop stop-color="#67C574" offset="64%" /><stop stop-color="#68C674" offset="65%" /><stop stop-color="#69C674" offset="66%" /><stop stop-color="#6AC673" offset="67%" /><stop stop-color="#6AC773" offset="68%" /><stop stop-color="#6BC773" offset="69%" /><stop stop-color="#6CC772" offset="70%" /><stop stop-color="#6CC772" offset="71%" /><stop stop-color="#6EC872" offset="72%" /><stop stop-color="#6FC871" offset="73%" /><stop stop-color="#70C971" offset="74%" /><stop stop-color="#70C971" offset="75%" /><stop stop-color="#71C970" offset="76%" /><stop stop-color="#72CA70" offset="77%" /><stop stop-color="#73CA70" offset="78%" /><stop stop-color="#74CA70" offset="79%" /><stop stop-color="#75CA6F" offset="80%" /><stop stop-color="#75CB6F" offset="81%" /><stop stop-color="#77CB6F" offset="82%" /><stop stop-color="#77CB6E" offset="83%" /><stop stop-color="#78CC6E" offset="84%" /><stop stop-color="#79CC6E" offset="85%" /><stop stop-color="#79CC6E" offset="86%" /><stop stop-color="#7BCD6D" offset="87%" /><stop stop-color="#7CCD6D" offset="88%" /><stop stop-color="#7DCD6C" offset="89%" /><stop stop-color="#7DCE6C" offset="90%" /><stop stop-color="#7ECE6C" offset="91%" /><stop stop-color="#7FCE6B" offset="92%" /><stop stop-color="#80CF6B" offset="93%" /><stop stop-color="#81CF6B" offset="94%" /><stop stop-color="#82CF6B" offset="95%" /><stop stop-color="#82D06A" offset="96%" /><stop stop-color="#83D06A" offset="97%" /><stop stop-color="#84D06A" offset="98%" /><stop stop-color="#85D169" offset="99%" /><stop stop-color="#85D069" offset="100%" /></linearGradient><clipPath id="19"><path id="" clip-rule="evenodd" transform="matrix(1 0 0 1 0 0)" d="M8.503906 11.00513L603.4961 11.00513L603.4961 11.00513L603.4961 780.9949L603.4961 780.9949L8.503906 780.9949z" /></clipPath><clipPath id="20"><path id="" clip-rule="evenodd" transform="matrix(1 0 0 1 0 0)" d="M8.503906 780.9949L603.4961 780.9949L603.4961 780.9949L603.4961 11.005L603.4961 11.005L8.503906 11.005z" /></clipPath><clipPath id="21"><path id="" clip-rule="evenodd" transform="matrix(1 0 0 1 0 0)" d="M8.503906 780.9949L603.4961 780.9949L603.4961 780.9949L603.4961 11.005L603.4961 11.005L8.503906 11.005z" /></clipPath><clipPath id="22"><path id="" clip-rule="evenodd" transform="matrix(1 0 0 1 0 0)" d="M8.503906 11.00513L603.4961 11.00513L603.4961 11.00513L603.4961 780.9949L603.4961 780.9949L8.503906 780.9949z" /></clipPath><clipPath id="23"><path id="" clip-rule="evenodd" transform="matrix(1 0 0 1 0 0)" d="M8.503906 780.9949L603.4961 780.9949L603.4961 780.9949L603.4961 11.005L603.4961 11.005L8.503906 11.005z" /></clipPath><clipPath id="24"><path id="" clip-rule="evenodd" transform="matrix(1 0 0 1 0 0)" d="M8.503906 780.9949L603.4961 780.9949L603.4961 780.9949L603.4961 11.005L603.4961 11.005L8.503906 11.005z" /></clipPath><clipPath id="25"><path id="" clip-rule="evenodd" transform="matrix(1 0 0 1 0 0)" d="M8.503906 11.00513L603.4961 11.00513L603.4961 11.00513L603.4961 780.9949L603.4961 780.9949L8.503906 780.9949z" /></clipPath><clipPath id="26"><path id="" clip-rule="evenodd" transform="matrix(1 0 0 1 0 0)" d="M8.503906 780.9949L603.4961 780.9949L603.4961 780.9949L603.4961 11.005L603.4961 11.005L8.503906 11.005z" /></clipPath><clipPath id="27"><path id="" clip-rule="evenodd" transform="matrix(1 0 0 1 0 0)" d="M8.503906 780.9949L603.4961 780.9949L603.4961 780.9949L603.4961 11.005L603.4961 11.005L8.503906 11.005z" /></clipPath><clipPath id="28"><path id="" clip-rule="evenodd" transform="matrix(1 0 0 1 0 0)" d="M8.503906 11.00513L603.4961 11.00513L603.4961 11.00513L603.4961 780.9949L603.4961 780.9949L8.503906 780.9949z" /></clipPath><clipPath id="29"><path id="" clip-rule="evenodd" transform="matrix(1 0 0 1 0 0)" d="M8.503906 780.9949L603.4961 780.9949L603.4961 780.9949L603.4961 11.005L603.4961 11.005L8.503906 11.005z" /></clipPath><clipPath id="30"><path id="" clip-rule="evenodd" transform="matrix(1 0 0 1 0 0)" d="M8.503906 780.9949L603.4961 780.9949L603.4961 780.9949L603.4961 11.005L603.4961 11.005L8.503906 11.005z" /></clipPath><clipPath id="31"><path id="" clip-rule="evenodd" transform="matrix(1 0 0 1 0 0)" d="M8.503906 11.00513L603.4961 11.00513L603.4961 11.00513L603.4961 780.9949L603.4961 780.9949L8.503906 780.9949z" /></clipPath><clipPath id="32"><path id="" clip-rule="evenodd" transform="matrix(1 0 0 1 0 0)" d="M8.503906 780.9949L603.4961 780.9949L603.4961 780.9949L603.4961 11.005L603.4961 11.005L8.503906 11.005z" /></clipPath><clipPath id="33"><path id="" clip-rule="evenodd" transform="matrix(1 0 0 1 0 0)" d="M8.503906 780.9949L603.4961 780.9949L603.4961 780.9949L603.4961 11.005L603.4961 11.005L8.503906 11.005z" /></clipPath><clipPath id="34"><path id="" clip-rule="evenodd" transform="matrix(1 0 0 1 0 0)" d="M8.503906 11.00513L603.4961 11.00513L603.4961 11.00513L603.4961 780.9949L603.4961 780.9949L8.503906 780.9949z" /></clipPath><clipPath id="35"><path id="" clip-rule="evenodd" transform="matrix(1 0 0 1 0 0)" d="M8.503906 780.9949L603.4961 780.9949L603.4961 780.9949L603.4961 11.005L603.4961 11.005L8.503906 11.005z" /></clipPath><clipPath id="36"><path id="" clip-rule="evenodd" transform="matrix(1 0 0 1 0 0)" d="M8.503906 780.9949L603.4961 780.9949L603.4961 780.9949L603.4961 11.005L603.4961 11.005L8.503906 11.005z" /></clipPath><clipPath id="37"><path id="" clip-rule="evenodd" transform="matrix(1 0 0 1 0 0)" d="M8.503906 11.00513L603.4961 11.00513L603.4961 11.00513L603.4961 780.9949L603.4961 780.9949L8.503906 780.9949z" /></clipPath><clipPath id="38"><path id="" clip-rule="evenodd" transform="matrix(1 0 0 1 0 0)" d="M8.503906 780.9949L603.4961 780.9949L603.4961 780.9949L603.4961 11.005L603.4961 11.005L8.503906 11.005z" /></clipPath><clipPath id="39"><path id="" clip-rule="evenodd" transform="matrix(1 0 0 1 0 0)" d="M8.503906 780.9949L603.4961 780.9949L603.4961 780.9949L603.4961 11.005L603.4961 11.005L8.503906 11.005z" /></clipPath><clipPath id="40"><path id="" clip-rule="evenodd" transform="matrix(1 0 0 1 0 0)" d="M8.503906 11.00513L603.4961 11.00513L603.4961 11.00513L603.4961 780.9949L603.4961 780.9949L8.503906 780.9949z" /></clipPath><clipPath id="41"><path id="" clip-rule="evenodd" transform="matrix(1 0 0 1 0 0)" d="M8.503906 780.9949L603.4961 780.9949L603.4961 780.9949L603.4961 11.005L603.4961 11.005L8.503906 11.005z" /></clipPath><clipPath id="42"><path id="" clip-rule="evenodd" transform="matrix(1 0 0 1 0 0)" d="M8.503906 780.9949L603.4961 780.9949L603.4961 780.9949L603.4961 11.005L603.4961 11.005L8.503906 11.005z" /></clipPath><clipPath id="43"><path id="" clip-rule="evenodd" transform="matrix(1 0 0 1 0 0)" d="M8.503906 11.00513L603.4961 11.00513L603.4961 11.00513L603.4961 780.9949L603.4961 780.9949L8.503906 780.9949z" /></clipPath><clipPath id="44"><path id="" clip-rule="evenodd" transform="matrix(1 0 0 1 0 0)" d="M8.503906 780.9949L603.4961 780.9949L603.4961 780.9949L603.4961 11.005L603.4961 11.005L8.503906 11.005z" /></clipPath><clipPath id="45"><path id="" clip-rule="evenodd" transform="matrix(1 0 0 1 0 0)" d="M8.503906 780.9949L603.4961 780.9949L603.4961 780.9949L603.4961 11.005L603.4961 11.005L8.503906 11.005z" /></clipPath><clipPath id="46"><path id="" clip-rule="evenodd" transform="matrix(1 0 0 1 0 0)" d="M8.503906 11.00513L603.4961 11.00513L603.4961 11.00513L603.4961 780.9949L603.4961 780.9949L8.503906 780.9949z" /></clipPath><clipPath id="47"><path id="" clip-rule="evenodd" transform="matrix(1 0 0 1 0 0)" d="M8.503906 780.9949L603.4961 780.9949L603.4961 780.9949L603.4961 11.005L603.4961 11.005L8.503906 11.005z" /></clipPath><clipPath id="48"><path id="" clip-rule="evenodd" transform="matrix(1 0 0 1 0 0)" d="M8.503906 780.9949L603.4961 780.9949L603.4961 780.9949L603.4961 11.005L603.4961 11.005L8.503906 11.005z" /></clipPath><clipPath id="49"><path id="" clip-rule="evenodd" transform="matrix(1 0 0 1 0 0)" d="M8.503906 11.00513L603.4961 11.00513L603.4961 11.00513L603.4961 780.9949L603.4961 780.9949L8.503906 780.9949z" /></clipPath><clipPath id="50"><path id="" clip-rule="evenodd" transform="matrix(1 0 0 1 0 0)" d="M8.503906 780.9949L603.4961 780.9949L603.4961 780.9949L603.4961 11.005L603.4961 11.005L8.503906 11.005z" /></clipPath><clipPath id="51"><path id="" clip-rule="evenodd" transform="matrix(1 0 0 1 0 0)" d="M8.503906 780.9949L603.4961 780.9949L603.4961 780.9949L603.4961 11.005L603.4961 11.005L8.503906 11.005z" /></clipPath><clipPath id="52"><path id="" clip-rule="evenodd" transform="matrix(1 0 0 1 0 0)" d="M8.503906 11.00513L603.4961 11.00513L603.4961 11.00513L603.4961 780.9949L603.4961 780.9949L8.503906 780.9949z" /></clipPath><clipPath id="53"><path id="" clip-rule="evenodd" transform="matrix(1 0 0 1 0 0)" d="M8.503906 780.9949L603.4961 780.9949L603.4961 780.9949L603.4961 11.005L603.4961 11.005L8.503906 11.005z" /></clipPath><clipPath id="54"><path id="" clip-rule="evenodd" transform="matrix(1 0 0 1 0 0)" d="M8.503906 780.9949L603.4961 780.9949L603.4961 780.9949L603.4961 11.005L603.4961 11.005L8.503906 11.005z" /></clipPath><clipPath id="55"><path id="" clip-rule="evenodd" transform="matrix(1 0 0 1 0 0)" d="M8.503906 11.00513L603.4961 11.00513L603.4961 11.00513L603.4961 780.9949L603.4961 780.9949L8.503906 780.9949z" /></clipPath><clipPath id="56"><path id="" clip-rule="evenodd" transform="matrix(1 0 0 1 0 0)" d="M8.503906 780.9949L603.4961 780.9949L603.4961 780.9949L603.4961 11.005L603.4961 11.005L8.503906 11.005z" /></clipPath><clipPath id="57"><path id="" clip-rule="evenodd" transform="matrix(1 0 0 1 0 0)" d="M8.503906 780.9949L603.4961 780.9949L603.4961 780.9949L603.4961 11.005L603.4961 11.005L8.503906 11.005z" /></clipPath><clipPath id="58"><path id="" clip-rule="evenodd" transform="matrix(1 0 0 1 0 0)" d="M8.503906 11.00513L603.4961 11.00513L603.4961 11.00513L603.4961 780.9949L603.4961 780.9949L8.503906 780.9949z" /></clipPath><clipPath id="59"><path id="" clip-rule="evenodd" transform="matrix(1 0 0 1 0 0)" d="M8.503906 780.9949L603.4961 780.9949L603.4961 780.9949L603.4961 11.005L603.4961 11.005L8.503906 11.005z" /></clipPath><clipPath id="60"><path id="" clip-rule="evenodd" transform="matrix(1 0 0 1 0 0)" d="M8.503906 780.9949L603.4961 780.9949L603.4961 780.9949L603.4961 11.005L603.4961 11.005L8.503906 11.005z" /></clipPath><clipPath id="61"><path id="" clip-rule="evenodd" transform="matrix(1 0 0 1 0 0)" d="M417.8193 49.00409L417.8193 60.07648L417.8193 60.07648L421.8198 67.00427L421.8198 67.00427L428.2121 67.00427z" /></clipPath><clipPath id="62"><path id="" clip-rule="evenodd" transform="matrix(1 0 0 1 0 0)" d="M8.503906 780.9949L603.4961 780.9949L603.4961 780.9949L603.4961 11.005L603.4961 11.005L8.503906 11.005z" /></clipPath><linearGradient gradientUnits="userSpaceOnUse" transform="matrix(1 0 0 1 0 0)" id="26977" x1="423.0157" y1="724.9957" x2="423.0157" y2="742.9959"><stop stop-color="#35485E" offset="0%" /><stop stop-color="#35485D" offset="1%" /><stop stop-color="#35485D" offset="2%" /><stop stop-color="#34475C" offset="3%" /><stop stop-color="#34475C" offset="4%" /><stop stop-color="#33465B" offset="5%" /><stop stop-color="#33465B" offset="6%" /><stop stop-color="#32455A" offset="7%" /><stop stop-color="#32455A" offset="8%" /><stop stop-color="#32445A" offset="9%" /><stop stop-color="#314459" offset="10%" /><stop stop-color="#314459" offset="11%" /><stop stop-color="#304358" offset="12%" /><stop stop-color="#304358" offset="13%" /><stop stop-color="#2F4257" offset="14%" /><stop stop-color="#2F4257" offset="15%" /><stop stop-color="#2E4157" offset="16%" /><stop stop-color="#2E4156" offset="17%" /><stop stop-color="#2E4056" offset="18%" /><stop stop-color="#2D4055" offset="19%" /><stop stop-color="#2D4055" offset="20%" /><stop stop-color="#2C3F54" offset="21%" /><stop stop-color="#2C3F54" offset="22%" /><stop stop-color="#2B3E54" offset="23%" /><stop stop-color="#2B3E53" offset="24%" /><stop stop-color="#2A3D53" offset="25%" /><stop stop-color="#2A3D52" offset="26%" /><stop stop-color="#2A3C52" offset="27%" /><stop stop-color="#293C52" offset="28%" /><stop stop-color="#293B51" offset="29%" /><stop stop-color="#283B51" offset="30%" /><stop stop-color="#283B50" offset="31%" /><stop stop-color="#273A50" offset="32%" /><stop stop-color="#273A4F" offset="33%" /><stop stop-color="#26394F" offset="34%" /><stop stop-color="#26394E" offset="35%" /><stop stop-color="#26384E" offset="36%" /><stop stop-color="#25384E" offset="37%" /><stop stop-color="#25374D" offset="38%" /><stop stop-color="#24374D" offset="39%" /><stop stop-color="#24364C" offset="40%" /><stop stop-color="#23364C" offset="41%" /><stop stop-color="#23364B" offset="42%" /><stop stop-color="#23354B" offset="43%" /><stop stop-color="#22354B" offset="44%" /><stop stop-color="#22344A" offset="45%" /><stop stop-color="#21344A" offset="46%" /><stop stop-color="#213349" offset="47%" /><stop stop-color="#203349" offset="48%" /><stop stop-color="#203248" offset="49%" /><stop stop-color="#1F3248" offset="50%" /><stop stop-color="#1F3248" offset="51%" /><stop stop-color="#1F3147" offset="52%" /><stop stop-color="#1E3147" offset="53%" /><stop stop-color="#1E3046" offset="54%" /><stop stop-color="#1D3046" offset="55%" /><stop stop-color="#1D2F45" offset="56%" /><stop stop-color="#1C2F45" offset="57%" /><stop stop-color="#1C2E45" offset="58%" /><stop stop-color="#1C2E44" offset="59%" /><stop stop-color="#1B2D44" offset="60%" /><stop stop-color="#1B2D43" offset="61%" /><stop stop-color="#1A2D43" offset="62%" /><stop stop-color="#1A2C42" offset="63%" /><stop stop-color="#192C42" offset="64%" /><stop stop-color="#192B42" offset="65%" /><stop stop-color="#192B41" offset="66%" /><stop stop-color="#182A41" offset="67%" /><stop stop-color="#182A40" offset="68%" /><stop stop-color="#172940" offset="69%" /><stop stop-color="#17293F" offset="70%" /><stop stop-color="#16293F" offset="71%" /><stop stop-color="#16283E" offset="72%" /><stop stop-color="#15283E" offset="73%" /><stop stop-color="#15273E" offset="74%" /><stop stop-color="#15273D" offset="75%" /><stop stop-color="#14263D" offset="76%" /><stop stop-color="#14263C" offset="77%" /><stop stop-color="#13253C" offset="78%" /><stop stop-color="#13253C" offset="79%" /><stop stop-color="#12243B" offset="80%" /><stop stop-color="#12243B" offset="81%" /><stop stop-color="#11243A" offset="82%" /><stop stop-color="#11233A" offset="83%" /><stop stop-color="#112339" offset="84%" /><stop stop-color="#102239" offset="85%" /><stop stop-color="#102239" offset="86%" /><stop stop-color="#0F2138" offset="87%" /><stop stop-color="#0F2138" offset="88%" /><stop stop-color="#0E2037" offset="89%" /><stop stop-color="#0E2037" offset="90%" /><stop stop-color="#0D2036" offset="91%" /><stop stop-color="#0D1F36" offset="92%" /><stop stop-color="#0D1F36" offset="93%" /><stop stop-color="#0C1E35" offset="94%" /><stop stop-color="#0C1E35" offset="95%" /><stop stop-color="#0B1D34" offset="96%" /><stop stop-color="#0B1D34" offset="97%" /><stop stop-color="#091B32" offset="98%" /><stop stop-color="#091B32" offset="99%" /><stop stop-color="#091B32" offset="100%" /></linearGradient><clipPath id="63"><path id="" clip-rule="evenodd" transform="matrix(1 0 0 1 0 0)" d="M435.0951 67.00427L435.1399 67.00427L435.1399 67.00427L435.1378 67.00012z" /></clipPath><clipPath id="64"><path id="" clip-rule="evenodd" transform="matrix(1 0 0 1 0 0)" d="M8.503906 780.9949L603.4961 780.9949L603.4961 780.9949L603.4961 11.005L603.4961 11.005L8.503906 11.005z" /></clipPath><clipPath id="65"><path id="" clip-rule="evenodd" transform="matrix(1 0 0 1 0 0)" d="M8.503906 780.9949L603.4961 780.9949L603.4961 780.9949L603.4961 11.005L603.4961 11.005L8.503906 11.005z" /></clipPath><clipPath id="66"><path id="" clip-rule="evenodd" transform="matrix(1 0 0 1 0 0)" d="M455.8799 67.00427L455.9254 67.00427L455.9254 67.00427L455.9233 67.00012z" /></clipPath><clipPath id="67"><path id="" clip-rule="evenodd" transform="matrix(1 0 0 1 0 0)" d="M8.503906 780.9949L603.4961 780.9949L603.4961 780.9949L603.4961 11.005L603.4961 11.005L8.503906 11.005z" /></clipPath><clipPath id="68"><path id="" clip-rule="evenodd" transform="matrix(1 0 0 1 0 0)" d="M438.6042 49.00409L438.6042 60.07648L438.6042 60.07648L434.6044 67.00427L434.6044 67.00427L428.2121 67.00427z" /></clipPath><clipPath id="69"><path id="" clip-rule="evenodd" transform="matrix(1 0 0 1 0 0)" d="M8.503906 780.9949L603.4961 780.9949L603.4961 780.9949L603.4961 11.005L603.4961 11.005L8.503906 11.005z" /></clipPath><linearGradient gradientUnits="userSpaceOnUse" transform="matrix(1 0 0 1 0 0)" id="32777" x1="433.4082" y1="724.9957" x2="433.4082" y2="742.9959"><stop stop-color="#35485E" offset="0%" /><stop stop-color="#35485D" offset="1%" /><stop stop-color="#35485D" offset="2%" /><stop stop-color="#34475C" offset="3%" /><stop stop-color="#34475C" offset="4%" /><stop stop-color="#33465B" offset="5%" /><stop stop-color="#33465B" offset="6%" /><stop stop-color="#32455A" offset="7%" /><stop stop-color="#32455A" offset="8%" /><stop stop-color="#32445A" offset="9%" /><stop stop-color="#314459" offset="10%" /><stop stop-color="#314459" offset="11%" /><stop stop-color="#304358" offset="12%" /><stop stop-color="#304358" offset="13%" /><stop stop-color="#2F4257" offset="14%" /><stop stop-color="#2F4257" offset="15%" /><stop stop-color="#2E4157" offset="16%" /><stop stop-color="#2E4156" offset="17%" /><stop stop-color="#2E4056" offset="18%" /><stop stop-color="#2D4055" offset="19%" /><stop stop-color="#2D4055" offset="20%" /><stop stop-color="#2C3F54" offset="21%" /><stop stop-color="#2C3F54" offset="22%" /><stop stop-color="#2B3E54" offset="23%" /><stop stop-color="#2B3E53" offset="24%" /><stop stop-color="#2A3D53" offset="25%" /><stop stop-color="#2A3D52" offset="26%" /><stop stop-color="#2A3C52" offset="27%" /><stop stop-color="#293C52" offset="28%" /><stop stop-color="#293B51" offset="29%" /><stop stop-color="#283B51" offset="30%" /><stop stop-color="#283B50" offset="31%" /><stop stop-color="#273A50" offset="32%" /><stop stop-color="#273A4F" offset="33%" /><stop stop-color="#26394F" offset="34%" /><stop stop-color="#26394E" offset="35%" /><stop stop-color="#26384E" offset="36%" /><stop stop-color="#25384E" offset="37%" /><stop stop-color="#25374D" offset="38%" /><stop stop-color="#24374D" offset="39%" /><stop stop-color="#24364C" offset="40%" /><stop stop-color="#23364C" offset="41%" /><stop stop-color="#23364B" offset="42%" /><stop stop-color="#23354B" offset="43%" /><stop stop-color="#22354B" offset="44%" /><stop stop-color="#22344A" offset="45%" /><stop stop-color="#21344A" offset="46%" /><stop stop-color="#213349" offset="47%" /><stop stop-color="#203349" offset="48%" /><stop stop-color="#203248" offset="49%" /><stop stop-color="#1F3248" offset="50%" /><stop stop-color="#1F3248" offset="51%" /><stop stop-color="#1F3147" offset="52%" /><stop stop-color="#1E3147" offset="53%" /><stop stop-color="#1E3046" offset="54%" /><stop stop-color="#1D3046" offset="55%" /><stop stop-color="#1D2F45" offset="56%" /><stop stop-color="#1C2F45" offset="57%" /><stop stop-color="#1C2E45" offset="58%" /><stop stop-color="#1C2E44" offset="59%" /><stop stop-color="#1B2D44" offset="60%" /><stop stop-color="#1B2D43" offset="61%" /><stop stop-color="#1A2D43" offset="62%" /><stop stop-color="#1A2C42" offset="63%" /><stop stop-color="#192C42" offset="64%" /><stop stop-color="#192B42" offset="65%" /><stop stop-color="#192B41" offset="66%" /><stop stop-color="#182A41" offset="67%" /><stop stop-color="#182A40" offset="68%" /><stop stop-color="#172940" offset="69%" /><stop stop-color="#17293F" offset="70%" /><stop stop-color="#16293F" offset="71%" /><stop stop-color="#16283E" offset="72%" /><stop stop-color="#15283E" offset="73%" /><stop stop-color="#15273E" offset="74%" /><stop stop-color="#15273D" offset="75%" /><stop stop-color="#14263D" offset="76%" /><stop stop-color="#14263C" offset="77%" /><stop stop-color="#13253C" offset="78%" /><stop stop-color="#13253C" offset="79%" /><stop stop-color="#12243B" offset="80%" /><stop stop-color="#12243B" offset="81%" /><stop stop-color="#11243A" offset="82%" /><stop stop-color="#11233A" offset="83%" /><stop stop-color="#112339" offset="84%" /><stop stop-color="#102239" offset="85%" /><stop stop-color="#102239" offset="86%" /><stop stop-color="#0F2138" offset="87%" /><stop stop-color="#0F2138" offset="88%" /><stop stop-color="#0E2037" offset="89%" /><stop stop-color="#0E2037" offset="90%" /><stop stop-color="#0D2036" offset="91%" /><stop stop-color="#0D1F36" offset="92%" /><stop stop-color="#0D1F36" offset="93%" /><stop stop-color="#0C1E35" offset="94%" /><stop stop-color="#0C1E35" offset="95%" /><stop stop-color="#0B1D34" offset="96%" /><stop stop-color="#0B1D34" offset="97%" /><stop stop-color="#091B32" offset="98%" /><stop stop-color="#091B32" offset="99%" /><stop stop-color="#091B32" offset="100%" /></linearGradient><clipPath id="70"><path id="" clip-rule="evenodd" transform="matrix(1 0 0 1 0 0)" d="M438.6042 37.00409L428.2121 55.00372L428.2121 55.00372L428.2121 55.00928L428.2121 55.00928L428.2093 55.00018L428.2093 55.00018L417.8193 37.00409L417.8193 37.00409L400.4988 67.00427L400.4988 67.00427L407.4266 67.00427L407.4266 67.00427L417.8193 49.00409L417.8193 49.00409L428.2093 67.00012L428.2093 67.00012L428.2121 66.98608L428.2121 66.98608L428.2121 67.00427L428.2121 67.00427L438.6042 49.00409L438.6042 49.00409L448.9969 67.00427L448.9969 67.00427L455.9254 67.00427z" /></clipPath><clipPath id="71"><path id="" clip-rule="evenodd" transform="matrix(1 0 0 1 0 0)" d="M8.503906 780.9949L603.4961 780.9949L603.4961 780.9949L603.4961 11.005L603.4961 11.005L8.503906 11.005z" /></clipPath><linearGradient gradientUnits="userSpaceOnUse" transform="matrix(1 0 0 1 0 0)" id="37892" x1="428.212" y1="724.9957" x2="428.212" y2="754.9961"><stop stop-color="#40B681" offset="0%" /><stop stop-color="#40B681" offset="1%" /><stop stop-color="#40B681" offset="2%" /><stop stop-color="#40B681" offset="3%" /><stop stop-color="#40B681" offset="4%" /><stop stop-color="#40B681" offset="5%" /><stop stop-color="#40B681" offset="6%" /><stop stop-color="#40B681" offset="7%" /><stop stop-color="#40B681" offset="8%" /><stop stop-color="#40B681" offset="9%" /><stop stop-color="#40B681" offset="10%" /><stop stop-color="#40B681" offset="11%" /><stop stop-color="#40B681" offset="12%" /><stop stop-color="#40B681" offset="13%" /><stop stop-color="#40B681" offset="14%" /><stop stop-color="#40B681" offset="15%" /><stop stop-color="#40B681" offset="16%" /><stop stop-color="#40B681" offset="17%" /><stop stop-color="#40B681" offset="18%" /><stop stop-color="#40B681" offset="19%" /><stop stop-color="#40B681" offset="20%" /><stop stop-color="#41B781" offset="21%" /><stop stop-color="#42B781" offset="22%" /><stop stop-color="#43B781" offset="23%" /><stop stop-color="#44B880" offset="24%" /><stop stop-color="#45B880" offset="25%" /><stop stop-color="#46B880" offset="26%" /><stop stop-color="#46B97F" offset="27%" /><stop stop-color="#48B97F" offset="28%" /><stop stop-color="#48B97F" offset="29%" /><stop stop-color="#49BA7E" offset="30%" /><stop stop-color="#4ABA7E" offset="31%" /><stop stop-color="#4BBA7E" offset="32%" /><stop stop-color="#4CBB7D" offset="33%" /><stop stop-color="#4DBB7D" offset="34%" /><stop stop-color="#4DBB7D" offset="35%" /><stop stop-color="#4EBC7D" offset="36%" /><stop stop-color="#4FBC7C" offset="37%" /><stop stop-color="#50BC7C" offset="38%" /><stop stop-color="#51BD7C" offset="39%" /><stop stop-color="#52BD7B" offset="40%" /><stop stop-color="#53BD7B" offset="41%" /><stop stop-color="#53BE7B" offset="42%" /><stop stop-color="#54BE7A" offset="43%" /><stop stop-color="#55BE7A" offset="44%" /><stop stop-color="#56BF7A" offset="45%" /><stop stop-color="#57BF79" offset="46%" /><stop stop-color="#58BF79" offset="47%" /><stop stop-color="#59C079" offset="48%" /><stop stop-color="#59C078" offset="49%" /><stop stop-color="#5AC078" offset="50%" /><stop stop-color="#5BC178" offset="51%" /><stop stop-color="#5CC177" offset="52%" /><stop stop-color="#5DC177" offset="53%" /><stop stop-color="#5EC277" offset="54%" /><stop stop-color="#5FC277" offset="55%" /><stop stop-color="#60C276" offset="56%" /><stop stop-color="#60C376" offset="57%" /><stop stop-color="#61C376" offset="58%" /><stop stop-color="#62C375" offset="59%" /><stop stop-color="#63C375" offset="60%" /><stop stop-color="#64C475" offset="61%" /><stop stop-color="#65C474" offset="62%" /><stop stop-color="#66C474" offset="63%" /><stop stop-color="#66C574" offset="64%" /><stop stop-color="#67C573" offset="65%" /><stop stop-color="#68C573" offset="66%" /><stop stop-color="#69C673" offset="67%" /><stop stop-color="#6AC673" offset="68%" /><stop stop-color="#6BC672" offset="69%" /><stop stop-color="#6CC772" offset="70%" /><stop stop-color="#6CC772" offset="71%" /><stop stop-color="#6DC771" offset="72%" /><stop stop-color="#6EC871" offset="73%" /><stop stop-color="#6FC871" offset="74%" /><stop stop-color="#70C870" offset="75%" /><stop stop-color="#71C970" offset="76%" /><stop stop-color="#72C970" offset="77%" /><stop stop-color="#73C96F" offset="78%" /><stop stop-color="#73CA6F" offset="79%" /><stop stop-color="#74CA6F" offset="80%" /><stop stop-color="#75CA6E" offset="81%" /><stop stop-color="#76CB6E" offset="82%" /><stop stop-color="#77CB6E" offset="83%" /><stop stop-color="#78CB6D" offset="84%" /><stop stop-color="#79CC6D" offset="85%" /><stop stop-color="#79CC6D" offset="86%" /><stop stop-color="#7ACC6D" offset="87%" /><stop stop-color="#7BCD6C" offset="88%" /><stop stop-color="#7CCD6C" offset="89%" /><stop stop-color="#7DCD6C" offset="90%" /><stop stop-color="#7ECE6B" offset="91%" /><stop stop-color="#7FCE6B" offset="92%" /><stop stop-color="#80CE6B" offset="93%" /><stop stop-color="#80CF6A" offset="94%" /><stop stop-color="#81CF6A" offset="95%" /><stop stop-color="#82CF6A" offset="96%" /><stop stop-color="#83CF69" offset="97%" /><stop stop-color="#84D069" offset="98%" /><stop stop-color="#85D069" offset="99%" /><stop stop-color="#85D069" offset="100%" /></linearGradient><clipPath id="72"><path id="" clip-rule="evenodd" transform="matrix(1 0 0 1 0 0)" d="M8.503906 11.00513L603.4961 11.00513L603.4961 11.00513L603.4961 780.9949L603.4961 780.9949L8.503906 780.9949z" /></clipPath><clipPath id="73"><path id="" clip-rule="evenodd" transform="matrix(1 0 0 1 0 0)" d="M8.503906 780.9949L603.4961 780.9949L603.4961 780.9949L603.4961 11.005L603.4961 11.005L8.503906 11.005z" /></clipPath><clipPath id="74"><path id="" clip-rule="evenodd" transform="matrix(1 0 0 1 0 0)" d="M8.503906 780.9949L603.4961 780.9949L603.4961 780.9949L603.4961 11.005L603.4961 11.005L8.503906 11.005z" /></clipPath><clipPath id="75"><path id="" clip-rule="evenodd" transform="matrix(1 0 0 1 0 0)" d="M8.503906 11.00513L603.4961 11.00513L603.4961 11.00513L603.4961 780.9949L603.4961 780.9949L8.503906 780.9949z" /></clipPath><clipPath id="76"><path id="" clip-rule="evenodd" transform="matrix(1 0 0 1 0 0)" d="M8.503906 780.9949L603.4961 780.9949L603.4961 780.9949L603.4961 11.005L603.4961 11.005L8.503906 11.005z" /></clipPath></defs><g transform="matrix(1.333333 0 0 1.333333 0 0)"><g clip-path="url(#1)"><g clip-path="url(#2)"><g clip-path="url(#3)"><path id="1" transform="matrix(1 0 0 -1 0 792)" d="M566.9961 18.10884L38.33079 18.61914C 37.558 18.61914 36.93081 19.24563 36.93081 20.01912L36.93081 20.01912L36.93081 41.52073C 36.93081 42.29422 37.558 42.92072 38.33079 42.92072L38.33079 42.92072L566.9961 42.41042C 567.7688 42.41042 568.396 41.78323 568.396 41.01044L568.396 41.01044L568.396 19.50882C 568.396 18.73603 567.7688 18.10884 566.9961 18.10884" stroke="none" fill="#EFF0EB" fill-rule="nonzero" /></g></g><g clip-path="url(#4)"></g><g clip-path="url(#5)"><g clip-path="url(#6)"><path id="53" transform="matrix(1 0 0 -1 0 792)" d="M51.66443 24.19617L53.34931 27.11443L55.03419 24.19617L57.72705 24.19617L53.34931 31.77847L48.97156 24.19617z" stroke="none" fill="#36495E" fill-rule="nonzero" /></g></g><g clip-path="url(#7)"><g clip-path="url(#8)"><g><path id="54" transform="matrix(1 0 0 -1 0 792)" d="M0 24.19639L612 24.19639L612 24.19639L612 31.77845L612 31.77845L0 31.77845" stroke="none" fill="url(#1723)" /><path id="56" transform="matrix(1 0 0 -1 0 792)" d="M0 31.77845L612 31.77845L612 31.77845L612 792L612 792L0 792" stroke="none" fill="#0A1C33" fill-rule="evenodd" /></g></g></g><g clip-path="url(#9)"><g clip-path="url(#10)"><g></g></g></g><g clip-path="url(#11)"><g clip-path="url(#12)"><path id="57" transform="matrix(1 0 0 -1 0 792)" d="M63.78918 24.19617L62.1043 27.11443L60.41942 24.19617L57.72656 24.19617L62.1043 31.77847L66.48204 24.19617z" stroke="none" fill="#36485E" fill-rule="nonzero" /></g></g><g clip-path="url(#13)"><g clip-path="url(#14)"><g></g></g></g><g clip-path="url(#15)"><g clip-path="url(#16)"><g><path id="58" transform="matrix(1 0 0 -1 0 792)" d="M0 24.19639L612 24.19639L612 24.19639L612 31.77845L612 31.77845L0 31.77845" stroke="none" fill="url(#7745)" /><path id="60" transform="matrix(1 0 0 -1 0 792)" d="M0 31.77845L612 31.77845L612 31.77845L612 792L612 792L0 792" stroke="none" fill="#091B32" fill-rule="evenodd" /></g></g></g><g clip-path="url(#17)"><g clip-path="url(#18)"><g><path id="61" transform="matrix(1 0 0 -1 0 792)" d="M0 24.19639L612 24.19639L612 24.19639L612 36.83315L612 36.83315L0 36.83315" stroke="none" fill="url(#12856)" /></g></g></g><g clip-path="url(#19)"><g clip-path="url(#20)"><path id="64" transform="matrix(1 0 0 -1 0 792)" d="M401.2356 294.2156L39.30325 294.2156C 37.75696 294.2156 36.5033 295.4693 36.5033 297.0156L36.5033 297.0156L36.5033 695.7695C 36.5033 697.3165 37.75696 698.5695 39.30325 698.5695L39.30325 698.5695L401.2356 698.5695C 402.7819 698.5695 404.0356 697.3165 404.0356 695.7695L404.0356 695.7695L404.0356 297.0156C 404.0356 295.4693 402.7819 294.2156 401.2356 294.2156z" stroke="#CCCCCC" stroke-width="0.6999908" fill="none" /><path id="65" transform="matrix(1 0 0 -1 0 792)" d="M491.6548 52.07002L39.30325 52.07002C 37.75693 52.07002 36.50327 53.3237 36.50327 54.86998L36.50327 54.86998L36.50327 256.5352C 36.50327 258.0822 37.75693 259.3352 39.30325 259.3352L39.30325 259.3352L491.6548 259.3352C 493.201 259.3352 494.4547 258.0822 494.4547 256.5352L494.4547 256.5352L494.4547 54.86998C 494.4547 53.3237 493.201 52.07002 491.6548 52.07002z" stroke="#CCCCCC" stroke-width="0.6999908" fill="none" /></g></g><g clip-path="url(#21)"></g><g clip-path="url(#22)"><g clip-path="url(#23)"><path id="1130" transform="matrix(1 0 0 -1 0 792)" d="M574.7965 542.3462L411.3122 542.3462C 410.5394 542.3462 409.9122 542.9734 409.9122 543.7462L409.9122 543.7462L409.9122 697.1695C 409.9122 697.943 410.5394 698.5695 411.3122 698.5695L411.3122 698.5695L574.7965 698.5695C 575.5693 698.5695 576.1965 697.943 576.1965 697.1695L576.1965 697.1695L576.1965 543.7462C 576.1965 542.9734 575.5693 542.3462 574.7965 542.3462" stroke="none" fill="#FFFFFF" fill-rule="nonzero" /><path id="1131" transform="matrix(1 0 0 -1 0 792)" d="M574.7965 542.3462L411.3123 542.3462C 410.5395 542.3462 409.9123 542.9734 409.9123 543.7462L409.9123 543.7462L409.9123 697.1694C 409.9123 697.9429 410.5395 698.5695 411.3123 698.5695L411.3123 698.5695L574.7965 698.5695C 575.5693 698.5695 576.1965 697.9429 576.1965 697.1694L576.1965 697.1694L576.1965 543.7462C 576.1965 542.9734 575.5693 542.3462 574.7965 542.3462z" stroke="#00B467" stroke-width="0.6999908" fill="none" /><path id="1132" transform="matrix(1 0 0 -1 0 792)" d="M575.4965 453.362L343.4271 453.362C 342.6536 453.362 342.0271 453.9885 342.0271 454.762L342.0271 454.762L342.0271 483.8466C 342.0271 484.6201 342.6536 485.2466 343.4271 485.2466L343.4271 485.2466L575.4965 485.2466C 576.2693 485.2466 576.8964 484.6201 576.8964 483.8466L576.8964 483.8466L576.8964 454.762C 576.8964 453.9885 576.2693 453.362 575.4965 453.362" stroke="none" fill="#FFFFFF" fill-rule="nonzero" /><path id="1133" transform="matrix(1 0 0 -1 0 792)" d="M575.4965 453.362L343.4272 453.362C 342.6537 453.362 342.0272 453.9885 342.0272 454.762L342.0272 454.762L342.0272 483.8466C 342.0272 484.6201 342.6537 485.2466 343.4272 485.2466L343.4272 485.2466L575.4965 485.2466C 576.2693 485.2466 576.8965 484.6201 576.8965 483.8466L576.8965 483.8466L576.8965 454.762C 576.8965 453.9885 576.2693 453.362 575.4965 453.362z" stroke="#00B467" stroke-width="0.6999908" fill="none" /></g></g><g clip-path="url(#24)"></g><g clip-path="url(#25)"><g clip-path="url(#26)"><path id="1198" transform="matrix(1 0 0 -1 0 792)" d="M170.332 470.8618L170.332 477.7042L170.332 477.7042L342.0272 477.7042" stroke="#00B467" stroke-width="0.6999908" fill="none" /><path id="1199" transform="matrix(1 0 0 -1 0 792)" d="M575.4965 491.0842L287.754 491.0842C 286.9805 491.0842 286.3541 491.7114 286.3541 492.4842L286.3541 492.4842L286.3541 535.1088C 286.3541 535.8822 286.9805 536.5087 287.754 536.5087L287.754 536.5087L575.4965 536.5087C 576.2693 536.5087 576.8964 535.8822 576.8964 535.1088L576.8964 535.1088L576.8964 492.4842C 576.8964 491.7114 576.2693 491.0842 575.4965 491.0842" stroke="none" fill="#FFFFFF" fill-rule="nonzero" /><path id="1200" transform="matrix(1 0 0 -1 0 792)" d="M575.4965 491.0842L287.7541 491.0842C 286.9806 491.0842 286.3541 491.7114 286.3541 492.4842L286.3541 492.4842L286.3541 535.1087C 286.3541 535.8822 286.9806 536.5087 287.7541 536.5087L287.7541 536.5087L575.4965 536.5087C 576.2693 536.5087 576.8965 535.8822 576.8965 535.1087L576.8965 535.1087L576.8965 492.4842C 576.8965 491.7114 576.2693 491.0842 575.4965 491.0842z" stroke="#00B467" stroke-width="0.6999908" fill="none" /></g></g><g clip-path="url(#27)"></g><g clip-path="url(#28)"><g clip-path="url(#29)"><path id="1254" transform="matrix(1 0 0 -1 0 792)" d="M567.3892 496.9688L294.1884 496.9688L294.1884 514.7338L567.3892 514.7338z" stroke="none" fill="#F2F2F2" fill-rule="nonzero" /></g></g><g clip-path="url(#30)"></g><g clip-path="url(#31)"><g clip-path="url(#32)"><path id="1308" transform="matrix(1 0 0 -1 0 792)" d="M237.7963 505.851L286.3539 505.851" stroke="#00B467" stroke-width="0.6999908" fill="none" /><path id="1309" transform="matrix(1 0 0 -1 0 792)" d="M441.4482 429.3244L343.4271 429.3244C 342.6536 429.3244 342.0271 429.9516 342.0271 430.7244L342.0271 430.7244L342.0271 446.1242C 342.0271 446.897 342.6536 447.5242 343.4271 447.5242L343.4271 447.5242L441.4482 447.5242C 442.221 447.5242 442.8482 446.897 442.8482 446.1242L442.8482 446.1242L442.8482 430.7244C 442.8482 429.9516 442.221 429.3244 441.4482 429.3244" stroke="none" fill="#FFFFFF" fill-rule="nonzero" /><path id="1310" transform="matrix(1 0 0 -1 0 792)" d="M441.4482 429.3244L343.4271 429.3244C 342.6536 429.3244 342.0271 429.9516 342.0271 430.7244L342.0271 430.7244L342.0271 446.1242C 342.0271 446.897 342.6536 447.5242 343.4271 447.5242L343.4271 447.5242L441.4482 447.5242C 442.221 447.5242 442.8482 446.897 442.8482 446.1242L442.8482 446.1242L442.8482 430.7244C 442.8482 429.9516 442.221 429.3244 441.4482 429.3244z" stroke="#00B467" stroke-width="0.6999908" fill="none" /></g></g><g clip-path="url(#33)"></g><g clip-path="url(#34)"><g clip-path="url(#35)"><path id="1328" transform="matrix(1 0 0 -1 0 792)" d="M342.027 435.6243L256.1794 435.6243" stroke="#00B467" stroke-width="0.6999908" fill="none" /><path id="1329" transform="matrix(1 0 0 -1 0 792)" d="M576.1965 385.5986L287.054 385.5986C 286.2806 385.5986 285.6541 386.2257 285.6541 386.9985L285.6541 386.9985L285.6541 407.1954C 285.6541 407.9682 286.2806 408.5954 287.054 408.5954L287.054 408.5954L576.1965 408.5954C 576.9692 408.5954 577.5964 407.9682 577.5964 407.1954L577.5964 407.1954L577.5964 386.9985C 577.5964 386.2257 576.9692 385.5986 576.1965 385.5986" stroke="none" fill="#FFFFFF" fill-rule="nonzero" /><path id="1330" transform="matrix(1 0 0 -1 0 792)" d="M576.1965 385.5986L287.0541 385.5986C 286.2806 385.5986 285.6541 386.2258 285.6541 386.9986L285.6541 386.9986L285.6541 407.1954C 285.6541 407.9682 286.2806 408.5954 287.0541 408.5954L287.0541 408.5954L576.1965 408.5954C 576.9692 408.5954 577.5964 407.9682 577.5964 407.1954L577.5964 407.1954L577.5964 386.9986C 577.5964 386.2258 576.9692 385.5986 576.1965 385.5986z" stroke="#00B467" stroke-width="0.6999908" fill="none" /></g></g><g clip-path="url(#36)"></g><g clip-path="url(#37)"><g clip-path="url(#38)"><path id="1382" transform="matrix(1 0 0 -1 0 792)" d="M285.6538 397.0965L266.7379 397.0965L266.7379 397.0965L266.7379 412.2261" stroke="#00B467" stroke-width="0.6999908" fill="none" /><path id="1383" transform="matrix(1 0 0 -1 0 792)" d="M550.0777 387.9564L512.3461 387.9564L512.3461 405.7208L550.0777 405.7208z" stroke="none" fill="#F1F1F1" fill-rule="nonzero" /></g></g><g clip-path="url(#39)"></g><g clip-path="url(#40)"><g clip-path="url(#41)"><path id="1390" transform="matrix(1 0 0 -1 0 792)" d="M442.1482 361.8754L287.054 361.8754C 286.2806 361.8754 285.6541 362.5026 285.6541 363.2754L285.6541 363.2754L285.6541 378.6752C 285.6541 379.448 286.2806 380.0752 287.054 380.0752L287.054 380.0752L442.1482 380.0752C 442.921 380.0752 443.5482 379.448 443.5482 378.6752L443.5482 378.6752L443.5482 363.2754C 443.5482 362.5026 442.921 361.8754 442.1482 361.8754" stroke="none" fill="#FFFFFF" fill-rule="nonzero" /><path id="1391" transform="matrix(1 0 0 -1 0 792)" d="M442.1482 361.8754L287.054 361.8754C 286.2805 361.8754 285.6541 362.5026 285.6541 363.2754L285.6541 363.2754L285.6541 378.6752C 285.6541 379.448 286.2805 380.0752 287.054 380.0752L287.054 380.0752L442.1482 380.0752C 442.921 380.0752 443.5482 379.448 443.5482 378.6752L443.5482 378.6752L443.5482 363.2754C 443.5482 362.5026 442.921 361.8754 442.1482 361.8754z" stroke="#00B467" stroke-width="0.6999908" fill="none" /></g></g><g clip-path="url(#42)"></g><g clip-path="url(#43)"><g clip-path="url(#44)"><path id="1421" transform="matrix(1 0 0 -1 0 792)" d="M285.6538 370.9753L194.5738 370.9753L194.5738 370.9753L194.5738 380.0752" stroke="#00B467" stroke-width="0.6999908" fill="none" /><path id="1422" transform="matrix(1 0 0 -1 0 792)" d="M574.0965 312.6109L286.8273 312.6109C 286.0538 312.6109 285.4273 313.2381 285.4273 314.0108L285.4273 314.0108L285.4273 329.4106C 285.4273 330.1841 286.0538 330.8106 286.8273 330.8106L286.8273 330.8106L574.0965 330.8106C 574.8693 330.8106 575.4965 330.1841 575.4965 329.4106L575.4965 329.4106L575.4965 314.0108C 575.4965 313.2381 574.8693 312.6109 574.0965 312.6109" stroke="none" fill="#FFFFFF" fill-rule="nonzero" /><path id="1423" transform="matrix(1 0 0 -1 0 792)" d="M574.0965 312.6109L286.8273 312.6109C 286.0538 312.6109 285.4273 313.2381 285.4273 314.0109L285.4273 314.0109L285.4273 329.4107C 285.4273 330.1842 286.0538 330.8107 286.8273 330.8107L286.8273 330.8107L574.0965 330.8107C 574.8693 330.8107 575.4965 330.1842 575.4965 329.4107L575.4965 329.4107L575.4965 314.0109C 575.4965 313.2381 574.8693 312.6109 574.0965 312.6109z" stroke="#00B467" stroke-width="0.6999908" fill="none" /></g></g><g clip-path="url(#45)"></g><g clip-path="url(#46)"><g clip-path="url(#47)"><path id="1478" transform="matrix(1 0 0 -1 0 792)" d="M285.4272 321.7107L222.9824 321.7107L222.9824 321.7107L222.9824 337.1581" stroke="#00B467" stroke-width="0.6999908" fill="none" /></g></g><g clip-path="url(#48)"></g><g clip-path="url(#49)"><g clip-path="url(#50)"><path id="1749" transform="matrix(1 0 0 -1 0 792)" d="M574.0965 211.065L286.3541 211.065C 285.5806 211.065 284.9541 211.6922 284.9541 212.465L284.9541 212.465L284.9541 227.8648C 284.9541 228.6376 285.5806 229.2648 286.3541 229.2648L286.3541 229.2648L574.0965 229.2648C 574.8693 229.2648 575.4965 228.6376 575.4965 227.8648L575.4965 227.8648L575.4965 212.465C 575.4965 211.6922 574.8693 211.065 574.0965 211.065" stroke="none" fill="#FFFFFF" fill-rule="nonzero" /><path id="1750" transform="matrix(1 0 0 -1 0 792)" d="M574.0965 211.065L286.3541 211.065C 285.5806 211.065 284.9541 211.6922 284.9541 212.465L284.9541 212.465L284.9541 227.8648C 284.9541 228.6376 285.5806 229.2648 286.3541 229.2648L286.3541 229.2648L574.0965 229.2648C 574.8693 229.2648 575.4965 228.6376 575.4965 227.8648L575.4965 227.8648L575.4965 212.465C 575.4965 211.6922 574.8693 211.065 574.0965 211.065z" stroke="#00B467" stroke-width="0.6999908" fill="none" /></g></g><g clip-path="url(#51)"></g><g clip-path="url(#52)"><g clip-path="url(#53)"><path id="1805" transform="matrix(1 0 0 -1 0 792)" d="M284.9538 220.1649L160.3806 220.1649L160.3806 220.1649L160.3806 213.4471" stroke="#00B467" stroke-width="0.6999908" fill="none" /><path id="1806" transform="matrix(1 0 0 -1 0 792)" d="M574.0965 123.6229L286.0041 123.6229C 285.2306 123.6229 284.6041 124.2501 284.6041 125.0229L284.6041 125.0229L284.6041 145.2198C 284.6041 145.9925 285.2306 146.6197 286.0041 146.6197L286.0041 146.6197L574.0965 146.6197C 574.8693 146.6197 575.4965 145.9925 575.4965 145.2198L575.4965 145.2198L575.4965 125.0229C 575.4965 124.2501 574.8693 123.6229 574.0965 123.6229" stroke="none" fill="#FFFFFF" fill-rule="nonzero" /><path id="1807" transform="matrix(1 0 0 -1 0 792)" d="M574.0965 123.6229L286.0041 123.6229C 285.2306 123.6229 284.6041 124.2501 284.6041 125.0229L284.6041 125.0229L284.6041 145.2197C 284.6041 145.9925 285.2306 146.6197 286.0041 146.6197L286.0041 146.6197L574.0965 146.6197C 574.8693 146.6197 575.4965 145.9925 575.4965 145.2197L575.4965 145.2197L575.4965 125.0229C 575.4965 124.2501 574.8693 123.6229 574.0965 123.6229z" stroke="#00B467" stroke-width="0.6999908" fill="none" /><path id="1808" transform="matrix(1 0 0 -1 0 792)" d="M574.0965 99.6605L285.3041 99.6605C 284.5306 99.6605 283.9041 100.2877 283.9041 101.0605L283.9041 101.0605L283.9041 116.4603C 283.9041 117.2331 284.5306 117.8603 285.3041 117.8603L285.3041 117.8603L574.0965 117.8603C 574.8693 117.8603 575.4965 117.2331 575.4965 116.4603L575.4965 116.4603L575.4965 101.0605C 575.4965 100.2877 574.8693 99.6605 574.0965 99.6605" stroke="none" fill="#FFFFFF" fill-rule="nonzero" /><path id="1809" transform="matrix(1 0 0 -1 0 792)" d="M574.0965 99.6605L285.3041 99.6605C 284.5306 99.6605 283.9041 100.2877 283.9041 101.0605L283.9041 101.0605L283.9041 116.4603C 283.9041 117.2331 284.5306 117.8603 285.3041 117.8603L285.3041 117.8603L574.0965 117.8603C 574.8693 117.8603 575.4965 117.2331 575.4965 116.4603L575.4965 116.4603L575.4965 101.0605C 575.4965 100.2877 574.8693 99.6605 574.0965 99.6605z" stroke="#00B467" stroke-width="0.6999908" fill="none" /></g></g><g clip-path="url(#54)"></g><g clip-path="url(#55)"><g clip-path="url(#56)"><path id="1864" transform="matrix(1 0 0 -1 0 792)" d="M283.9038 108.7604L144.0372 108.7604L144.0372 108.7604L144.0372 99.24262" stroke="#00B467" stroke-width="0.6999908" fill="none" /></g></g><g clip-path="url(#57)"></g><g clip-path="url(#58)"><g clip-path="url(#59)"><path id="1892" transform="matrix(1 0 0 -1 0 792)" d="M452.2946 125.9806L414.5623 125.9806L414.5623 143.7457L452.2946 143.7457z" stroke="none" fill="#F1F1F1" fill-rule="nonzero" /></g></g><g clip-path="url(#60)"><path id="1927" transform="matrix(1 0 0 -1 0 792)" d="M413.8198 724.9957L417.8195 731.9235L421.82 724.9957L428.2123 724.9957L417.8195 742.9959L407.4268 724.9957z" stroke="none" fill="#36485E" fill-rule="nonzero" /></g><g clip-path="url(#61)"><g clip-path="url(#62)"><g><path id="1928" transform="matrix(1 0 0 -1 0 792)" d="M0 724.9957L612 724.9957L612 724.9957L612 742.9959L612 742.9959L0 742.9959" stroke="none" fill="url(#26977)" /></g></g></g><g clip-path="url(#63)"><g clip-path="url(#64)"><g></g></g></g><g clip-path="url(#65)"><path id="1931" transform="matrix(1 0 0 -1 0 792)" d="M442.6042 724.9957L438.6044 731.9235L434.604 724.9957L428.2117 724.9957L438.6044 742.9959L448.9972 724.9957z" stroke="none" fill="#36485E" fill-rule="nonzero" /></g><g clip-path="url(#66)"><g clip-path="url(#67)"><g></g></g></g><g clip-path="url(#68)"><g clip-path="url(#69)"><g><path id="1932" transform="matrix(1 0 0 -1 0 792)" d="M0 724.9957L612 724.9957L612 724.9957L612 742.9959L612 742.9959L0 742.9959" stroke="none" fill="url(#32777)" /></g></g></g><g clip-path="url(#70)"><g clip-path="url(#71)"><g><path id="1935" transform="matrix(1 0 0 -1 0 792)" d="M0 724.9957L612 724.9957L612 724.9957L612 754.9961L612 754.9961L0 754.9961" stroke="none" fill="url(#37892)" /></g></g></g><g clip-path="url(#72)"><g clip-path="url(#73)"><path id="1938" transform="matrix(1 0 0 -1 0 792)" d="M465.7278 742.3239L469.6477 742.3239L469.6477 742.3239L465.3995 729.3587L465.3995 729.3587L461.2758 729.3587L461.2758 729.3587L457.0458 742.3239L457.0458 742.3239L460.9832 742.3239L460.9832 742.3239L462.7479 735.7524C 463.1147 734.2922 463.3156 733.2758 463.3506 732.7018C 463.3919 733.1162 463.4745 733.6328 463.5991 734.2537C 463.7237 734.8746 463.8329 735.3625 463.9274 735.7174z" stroke="none" fill="#36485E" fill-rule="nonzero" /><path id="1939" transform="matrix(1 0 0 -1 0 792)" d="M478.0008 729.3587L477.5661 730.6095L477.5661 730.6095L477.3624 730.6095C 477.0726 730.1475 476.6694 729.7947 476.1515 729.5491C 475.6342 729.3041 475.0273 729.1816 474.3294 729.1816C 473.2241 729.1816 472.3638 729.5022 471.7485 730.144C 471.1339 730.7852 470.8266 731.691 470.8266 732.8614L470.8266 732.8614L470.8266 739.4063L470.8266 739.4063L474.2937 739.4063L474.2937 739.4063L474.2937 733.917C 474.2937 733.2604 474.3875 732.7641 474.5737 732.4274C 474.7592 732.09 475.0658 731.922 475.4914 731.922C 476.0885 731.922 476.5141 732.1565 476.7681 732.6262C 477.0229 733.0966 477.1496 733.8904 477.1496 735.0076L477.1496 735.0076L477.1496 739.4063L477.1496 739.4063L480.6167 739.4063L480.6167 739.4063L480.6167 729.3587z" stroke="none" fill="#36485E" fill-rule="nonzero" /><path id="1940" transform="matrix(1 0 0 -1 0 792)" d="M487.8622 729.1811C 486.1886 729.1811 484.8901 729.6263 483.9647 730.5159C 483.0393 731.4056 482.5766 732.6726 482.5766 734.3162C 482.5766 736.013 483.0057 737.315 483.8625 738.2221C 484.72 739.13 485.9436 739.5836 487.5339 739.5836C 489.0473 739.5836 490.2163 739.1888 491.0416 738.3999C 491.8662 737.6104 492.2785 736.4736 492.2785 734.9903L492.2785 734.9903L492.2785 733.4468L492.2785 733.4468L486.0794 733.4468C 486.1032 732.8854 486.309 732.4444 486.696 732.1252C 487.0831 731.806 487.6109 731.6464 488.2794 731.6464C 488.8877 731.6464 489.4484 731.7045 489.9594 731.8193C 490.4711 731.9348 491.0255 732.1315 491.6219 732.4094L491.6219 732.4094L491.6219 729.9175C 491.0787 729.6396 490.5166 729.4478 489.9377 729.3407C 489.3581 729.2343 488.6658 729.1811 487.8622 729.1811M487.6585 737.2247C 487.2504 737.2247 486.9088 737.0959 486.6337 736.839C 486.3594 736.5821 486.1977 736.1782 486.1508 735.6287L486.1508 735.6287L489.1306 735.6287C 489.1187 736.1131 488.9815 736.5002 488.7183 736.79C 488.4551 737.0798 488.1016 737.2247 487.6585 737.2247" stroke="none" fill="#36485E" fill-rule="nonzero" /><path id="1941" transform="matrix(1 0 0 -1 0 792)" d="M504.809 729.3587L502.1574 738.6965L502.1574 738.6965L502.0776 738.6965C 502.2015 737.1062 502.2638 735.8707 502.2638 734.9901L502.2638 734.9901L502.2638 729.3587L502.2638 729.3587L499.1601 729.3587L499.1601 729.3587L499.1601 742.3239L499.1601 742.3239L503.8248 742.3239L503.8248 742.3239L506.5296 733.119L506.5296 733.119L506.601 733.119L506.601 733.119L509.2526 742.3239L509.2526 742.3239L513.925 742.3239L513.925 742.3239L513.925 729.3587L513.925 729.3587L510.7064 729.3587L510.7064 729.3587L510.7064 735.0433C 510.7064 735.3387 510.7113 735.667 510.7197 736.0275C 510.7288 736.388 510.7687 737.272 510.8394 738.679L510.8394 738.679L510.7596 738.679L510.7596 738.679L508.1438 729.3587z" stroke="none" fill="#36485E" fill-rule="nonzero" /><path id="1942" transform="matrix(1 0 0 -1 0 792)" d="M523.0683 729.3588L522.4033 730.6888L522.4033 730.6888L522.3326 730.6888C 521.8651 730.1099 521.3891 729.7137 520.9047 729.5002C 520.4203 729.2881 519.7931 729.181 519.0245 729.181C 518.0788 729.181 517.3333 729.4652 516.7894 730.0329C 516.2462 730.6006 515.9739 731.3986 515.9739 732.4276C 515.9739 733.4971 516.3463 734.2937 517.0918 734.8173C 517.8359 735.3402 518.9153 735.6342 520.3286 735.6993L520.3286 735.6993L522.0044 735.7525L522.0044 735.7525L522.0044 735.8946C 522.0044 736.722 521.5963 737.1364 520.7801 737.1364C 520.0472 737.1364 519.1162 736.8879 517.9871 736.3909L517.9871 736.3909L516.9847 738.6792C 518.1551 739.2826 519.6335 739.5836 521.4185 739.5836C 522.7078 739.5836 523.7053 739.2644 524.4123 738.626C 525.1186 737.9876 525.4714 737.0951 525.4714 735.9478L525.4714 735.9478L525.4714 729.3588zM520.4966 731.6289C 520.9166 731.6289 521.2757 731.7619 521.5739 732.0279C 521.8728 732.2939 522.0219 732.6396 522.0219 733.0659L522.0219 733.0659L522.0219 733.8457L522.0219 733.8457L521.2239 733.8107C 520.0829 733.7694 519.5124 733.3494 519.5124 732.5515C 519.5124 731.9362 519.8407 731.6289 520.4966 731.6289" stroke="none" fill="#36485E" fill-rule="nonzero" /><path id="1943" transform="matrix(1 0 0 -1 0 792)" d="M535.5901 732.4447C 535.5901 731.3688 535.224 730.5561 534.4904 730.0059C 533.7575 729.4564 532.7048 729.1813 531.3335 729.1813C 530.588 729.1813 529.9412 729.2212 529.3917 729.301C 528.8415 729.3808 528.2801 729.5271 527.7061 729.7399L527.7061 729.7399L527.7061 732.5161C 528.2444 732.2795 528.8345 732.0842 529.4757 731.9309C 530.1176 731.7769 530.6888 731.6999 531.1914 731.6999C 531.9425 731.6999 532.3177 731.8714 532.3177 732.2144C 532.3177 732.3915 532.2127 732.5497 532.0027 732.689C 531.7927 732.8276 531.1823 733.0985 530.1722 733.5003C 529.2489 733.8783 528.6049 734.3088 528.2381 734.7904C 527.872 735.2727 527.6886 735.8831 527.6886 736.6215C 527.6886 737.556 528.0498 738.2826 528.7708 738.8034C 529.4918 739.3235 530.5117 739.5839 531.8305 739.5839C 532.492 739.5839 533.1143 739.5111 533.6967 739.3662C 534.279 739.2213 534.8831 739.0099 535.5103 738.732L535.5103 738.732L534.5702 736.4976C 534.1096 736.7041 533.6211 736.8805 533.1073 737.0247C 532.5928 737.1696 532.1728 737.2424 531.8473 737.2424C 531.2803 737.2424 530.9968 737.1038 530.9968 736.8259C 530.9968 736.6544 531.0955 736.5081 531.2936 736.3864C 531.4917 736.2653 532.0636 736.0189 533.0093 735.6465C 533.7128 735.3567 534.2377 735.0725 534.5842 734.7946C 534.93 734.5167 535.1834 734.1905 535.3458 733.8153C 535.5089 733.4394 535.5901 732.983 535.5901 732.4447" stroke="none" fill="#36485E" fill-rule="nonzero" /><path id="1944" transform="matrix(1 0 0 -1 0 792)" d="M542.4362 731.9217C 542.9031 731.9217 543.4624 732.0372 544.1127 732.2675L544.1127 732.2675L544.1127 729.7399C 543.6458 729.539 543.2006 729.3955 542.7778 729.3101C 542.355 729.224 541.8602 729.1813 541.2925 729.1813C 540.1277 729.1813 539.2884 729.4669 538.7739 730.0374C 538.2594 730.6079 538.0025 731.4842 538.0025 732.6665L538.0025 732.6665L538.0025 736.8077L538.0025 736.8077L536.7873 736.8077L536.7873 736.8077L536.7873 738.2182L536.7873 738.2182L538.3308 739.3087L538.3308 739.3087L539.2261 741.4192L539.2261 741.4192L541.4962 741.4192L541.4962 741.4192L541.4962 739.406L541.4962 739.406L543.9615 739.406L543.9615 739.406L543.9615 736.8077L543.9615 736.8077L541.4962 736.8077L541.4962 736.8077L541.4962 732.8975C 541.4962 732.2465 541.8091 731.9217 542.4362 731.9217" stroke="none" fill="#36485E" fill-rule="nonzero" /><path id="1945" transform="matrix(1 0 0 -1 0 792)" d="M550.7192 729.1811C 549.0456 729.1811 547.7471 729.6263 546.8217 730.5159C 545.8963 731.4056 545.4336 732.6726 545.4336 734.3162C 545.4336 736.013 545.8627 737.315 546.7195 738.2221C 547.577 739.13 548.8006 739.5836 550.3909 739.5836C 551.9043 739.5836 553.0733 739.1888 553.8986 738.3999C 554.7232 737.6104 555.1355 736.4736 555.1355 734.9903L555.1355 734.9903L555.1355 733.4468L555.1355 733.4468L548.9364 733.4468C 548.9602 732.8854 549.1653 732.4444 549.5531 732.1252C 549.9401 731.806 550.4679 731.6464 551.1357 731.6464C 551.7447 731.6464 552.3054 731.7045 552.8164 731.8193C 553.3281 731.9348 553.8825 732.1315 554.4789 732.4094L554.4789 732.4094L554.4789 729.9175C 553.9357 729.6396 553.3736 729.4478 552.794 729.3407C 552.2151 729.2343 551.5228 729.1811 550.7192 729.1811M550.5148 737.2247C 550.1074 737.2247 549.7658 737.0959 549.4908 736.839C 549.2164 736.5821 549.0547 736.1782 549.0078 735.6287L549.0078 735.6287L551.9876 735.6287C 551.9757 736.1131 551.8378 736.5002 551.5753 736.79C 551.3121 737.0798 550.9586 737.2247 550.5148 737.2247" stroke="none" fill="#36485E" fill-rule="nonzero" /><path id="1946" transform="matrix(1 0 0 -1 0 792)" d="M563.1612 739.5837C 563.4628 739.5837 563.7491 739.5599 564.0214 739.5123L564.0214 739.5123L564.216 739.4773L564.216 739.4773L563.9052 736.2048C 563.6217 736.2755 563.2291 736.3112 562.7265 736.3112C 561.9698 736.3112 561.4203 736.1383 561.0766 735.7925C 560.7336 735.4468 560.5628 734.9484 560.5628 734.2981L560.5628 734.2981L560.5628 729.3589L560.5628 729.3589L557.095 729.3589L557.095 729.3589L557.095 739.4066L557.095 739.4066L559.6759 739.4066L559.6759 739.4066L560.217 737.8015L560.217 737.8015L560.385 737.8015C 560.6748 738.3328 561.078 738.7633 561.596 739.0916C 562.1133 739.4199 562.6348 739.5837 563.1612 739.5837" stroke="none" fill="#36485E" fill-rule="nonzero" /><path id="1947" transform="matrix(1 0 0 -1 0 792)" d="M564.4026 739.4063L568.0565 739.4063L568.0565 739.4063L569.7589 733.6419C 569.8422 733.3402 569.8982 732.9769 569.9276 732.5513L569.9276 732.5513L569.9983 732.5513C 570.0459 732.9594 570.1166 733.3171 570.2111 733.6244L570.2111 733.6244L571.9583 739.4063L571.9583 739.4063L575.4967 739.4063L575.4967 739.4063L571.5236 728.7203C 571.0147 727.3609 570.3903 726.3998 569.6476 725.8384C 568.9063 725.2763 567.9382 724.9956 566.7441 724.9956C 566.2828 724.9956 565.8096 725.046 565.3245 725.1461L565.3245 725.1461L565.3245 727.8691C 565.6381 727.7984 565.9958 727.7627 566.3983 727.7627C 566.7056 727.7627 566.9744 727.8215 567.2047 727.9398C 567.4356 728.0581 567.6365 728.2254 567.808 728.441C 567.9788 728.6566 568.1622 729.0101 568.3575 729.5008z" stroke="none" fill="#36485E" fill-rule="nonzero" /></g></g><g clip-path="url(#74)"></g><g clip-path="url(#75)"><g clip-path="url(#76)"><path id="1980" transform="matrix(1 0 0 -1 0 792)" d="M576.8964 706.0959L36.50354 706.0959L36.50354 705.3959L576.8964 705.3959z" stroke="none" fill="#80CFA4" fill-rule="nonzero" /></g></g><g transform="matrix(0.1734337 0 0 0.1734337 533.779 4.547668)"><g transform="matrix(1 0 0 1 0 0)"><image x="0" y="0" xlink:href="img_01.png" width="252" height="252" /></g></g><path id="1987" transform="matrix(1 0 0 -1 0 792)" d="M417.053 671.9266L562.685 671.9266L562.685 671.9266L562.685 635.2736L562.685 635.2736L417.053 635.2736z" stroke="none" fill="#FFFFFF" fill-rule="evenodd" /><path id="2015" transform="matrix(1 0 0 -1 0 792)" d="M415.979 687.5682L556.779 687.5682L556.779 687.5682L556.779 674.6842L556.779 674.6842L415.979 674.6842z" stroke="none" fill="#FFFFFF" fill-rule="evenodd" /><path id="2039" transform="matrix(1 0 0 -1 0 792)" d="M414.905 617.3898L570.2 617.3898L570.2 617.3898L570.2 581.2738L570.2 581.2738L414.905 581.2738z" stroke="none" fill="#FFFFFF" fill-rule="evenodd" /><path id="2040" transform="matrix(1 0 0 -1 0 792)" d="M415.979 564.7792L568.053 564.7792L568.053 564.7792L568.053 551.8952L568.053 551.8952L415.979 551.8952z" stroke="none" fill="#FFFFFF" fill-rule="evenodd" /><path id="2102" transform="matrix(1 0 0 -1 0 792)" d="M293.579 533.6422L561.074 533.6422L561.074 533.6422L561.074 520.7582L561.074 520.7582L293.579 520.7582z" stroke="none" fill="#FFFFFF" fill-rule="evenodd" /><path id="2136" transform="matrix(1 0 0 -1 0 792)" d="M349.947 468.4632L556.242 468.4632L556.242 468.4632L556.242 455.5792L556.242 455.5792L349.947 455.5792z" stroke="none" fill="#FFFFFF" fill-rule="evenodd" /><path id="2155" transform="matrix(1 0 0 -1 0 792)" d="M294.116 405.8846L551.411 405.8846L551.411 405.8846L551.411 387.6316L551.411 387.6316L294.116 387.6316z" stroke="none" fill="#FFFFFF" fill-rule="evenodd" /><path id="2189" transform="matrix(1 0 0 -1 0 792)" d="M293.042 376.8102L432.768 376.8102L432.768 376.8102L432.768 363.9262L432.768 363.9262L293.042 363.9262z" stroke="none" fill="#FFFFFF" fill-rule="evenodd" /><path id="2211" transform="matrix(1 0 0 -1 0 792)" d="M293.579 327.9372L532.621 327.9372L532.621 327.9372L532.621 315.0532L532.621 315.0532L293.579 315.0532z" stroke="none" fill="#FFFFFF" fill-rule="evenodd" /><path id="2232" transform="matrix(1 0 0 -1 0 792)" d="M32.1368 278.5372L228.2318 278.5372L228.2318 278.5372L228.2318 265.6532L228.2318 265.6532L32.1368 265.6532z" stroke="none" fill="#FFFFFF" fill-rule="evenodd" /><path id="2239" transform="matrix(1 0 0 -1 0 792)" d="M293.042 226.4732L538.526 226.4732L538.526 226.4732L538.526 213.5892L538.526 213.5892L293.042 213.5892z" stroke="none" fill="#FFFFFF" fill-rule="evenodd" /><path id="2262" transform="matrix(1 0 0 -1 0 792)" d="M288.747 145.6005L568.589 145.6005L568.589 145.6005L568.589 128.8115L568.589 128.8115L288.747 128.8115z" stroke="none" fill="#FFFFFF" fill-rule="evenodd" /><path id="2263" transform="matrix(1 0 0 -1 0 792)" d="M290.358 116.0732L527.253 116.0732L527.253 116.0732L527.253 103.1892L527.253 103.1892L290.358 103.1892z" stroke="none" fill="#FFFFFF" fill-rule="evenodd" /></g></g></svg>