<svg t="1584610854817" class="icon" viewBox="0 0 1024 1024" version="1.1" xmlns="http://www.w3.org/2000/svg" p-id="6534" width="200" height="200"><path d="M356.989156 1012.599467c-101.489778 0-152.439467 0-206.074312-16.975645a205.346133 205.346133 0 0 1-122.743466-122.993778C11.377778 819.427556 11.377778 768.477867 11.377778 666.965333V356.989156c0-101.489778 0-152.416711 16.975644-206.074312a205.482667 205.482667 0 0 1 123.016534-122.766222C204.549689 11.377778 255.522133 11.377778 356.989156 11.377778H666.965333c101.489778 0 152.439467 0 206.119823 16.952889a205.573689 205.573689 0 0 1 122.720711 123.039289c16.816356 53.202489 16.816356 104.152178 16.816355 205.6192V666.965333c0 101.512533 0 152.462222-16.975644 206.142578a205.323378 205.323378 0 0 1-123.016534 122.697956c-53.202489 16.816356-104.152178 16.816356-205.641955 16.816355H356.989156z" fill="#FFFFFF" p-id="6535"></path><path d="M248.376889 316.416l58.276978-86.994489 24.826311 31.197867 34.907022-57.093689 54.454044 101.967644V195.902578H188.757333v153.736533h232.083911v-33.314133l-172.464355 0.091022zM215.540622 227.191467a20.002133 20.002133 0 1 1 20.0704 19.8656h-0.2048a19.8656 19.8656 0 0 1-19.8656-19.8656z m459.025067-5.802667h173.602133V195.925333h-173.602133v25.463467z m0 48.355556h173.602133v-25.3952h-173.602133v25.3952z m0-96.642845h173.602133V147.6608h-173.602133v25.440711z m-225.6896 48.287289h196.744533V195.925333h-196.744533v25.463467z m0 48.355556h196.744533v-25.3952h-196.744533v25.3952z m0-96.642845h196.744533V147.6608h-196.744533v25.440711zM188.416 828.029156h457.181867v-25.463467H188.416v25.463467z m0 48.378311h457.181867v-25.486223H188.416v25.486223z m0-96.642845h457.181867v-25.440711H188.416v25.440711z m486.149689 48.264534h173.602133v-25.463467h-173.602133v25.463467z m0 48.378311h173.602133v-25.486223h-173.602133v25.486223z m0-96.642845h173.602133v-25.440711h-173.602133v25.440711zM203.389156 147.6608a21.686044 21.686044 0 0 1 4.209777 0 10.695111 10.695111 0 0 1 3.322311 1.319822 6.7584 6.7584 0 0 1 2.025245 2.503111 7.896178 7.896178 0 0 1 0.705422 3.754667 6.985956 6.985956 0 0 1-1.069511 4.073244 8.578844 8.578844 0 0 1-3.299556 2.685156 7.3728 7.3728 0 0 1 4.482845 3.026489 9.557333 9.557333 0 0 1 0.887467 9.716622 7.600356 7.600356 0 0 1-2.594134 2.889956 9.284267 9.284267 0 0 1-3.663644 1.683911 15.473778 15.473778 0 0 1-4.187022 0.568889h-16.361245V147.6608h15.542045zM202.524444 160.654222a4.983467 4.983467 0 0 0 3.094756-0.887466 3.436089 3.436089 0 0 0 1.137778-2.958223 3.709156 3.709156 0 0 0 0-1.865955 2.389333 2.389333 0 0 0-1.046756-1.024 3.640889 3.640889 0 0 0-1.592889-0.659911h-8.510577v7.509333L202.524444 160.654222z m0 13.744356a4.937956 4.937956 0 0 0 2.002489 0 4.664889 4.664889 0 0 0 1.6384-0.568889 3.413333 3.413333 0 0 0 1.160534-1.388089 4.5056 4.5056 0 0 0 0.455111-2.048 4.027733 4.027733 0 0 0-1.456356-3.595378 5.7344 5.7344 0 0 0-3.640889-1.024h-7.805155v8.920178l7.645866-0.295822z m24.348445 11.8784a9.0112 9.0112 0 0 1-5.188267 1.137778h-3.936711v-5.3248h3.777422a2.389333 2.389333 0 0 0 1.888711-1.001245 3.185778 3.185778 0 0 0 0.6144-1.888711 3.6864 3.6864 0 0 0 0-1.410844l-8.237511-21.936356h6.872178l5.256533 15.997156 4.573867-15.928889h6.690133l-9.807644 26.237155a7.600356 7.600356 0 0 1-2.503111 4.118756z m32.403911-30.355911l-2.844444 4.3008h-4.733156v11.946666a2.139022 2.139022 0 0 0 2.6624 2.707911h2.048v4.983467h-3.413333a19.797333 19.797333 0 0 1-2.844445 0 4.5056 4.5056 0 0 1-2.321066-0.841955 3.231289 3.231289 0 0 1-1.592889-1.570134 5.643378 5.643378 0 0 1-0.637156-2.821689v-14.404266h-4.209778v-4.3008h3.822934v-3.640889l6.439822-3.094756v6.712889h7.623111v0.022756z m41.073778-8.260267a15.633067 15.633067 0 0 1 5.779911 0.932978 11.8784 11.8784 0 0 1 4.687644 2.980978 13.494044 13.494044 0 0 1 3.117511 4.983466c0.773689 2.275556 1.115022 4.642133 1.092267 7.076978a20.548267 20.548267 0 0 1-0.910222 6.417067 13.835378 13.835378 0 0 1-2.776178 5.188266 11.104711 11.104711 0 0 1-4.551111 3.345067 13.812622 13.812622 0 0 1-6.417067 1.274311h-14.290489V147.638044l14.267734 0.022756z m-0.477867 26.259911a10.740622 10.740622 0 0 0 2.958222 0 7.759644 7.759644 0 0 0 4.369067-4.687644 13.357511 13.357511 0 0 0 0.705422-4.528356 19.000889 19.000889 0 0 0-0.523378-4.391822 7.7824 7.7824 0 0 0-1.524622-3.390578 5.916444 5.916444 0 0 0-2.844444-2.139022 11.355022 11.355022 0 0 0-4.460089-0.728178h-4.983467v20.252445l6.303289-0.386845z m87.313067-3.254044a5.279289 5.279289 0 0 1-4.9152 4.346311c-4.960711 0-5.347556-6.576356-5.347556-6.576356a10.672356 10.672356 0 0 1 0-1.706666s0-6.530844 5.347556-6.599112a5.279289 5.279289 0 0 1 4.9152 4.323556h5.984711a11.104711 11.104711 0 0 0-11.150222-8.920178 11.355022 11.355022 0 0 0-11.423289 10.604089 20.252444 20.252444 0 0 0 0 3.322311 11.332267 11.332267 0 0 0 11.423289 10.581334 10.922667 10.922667 0 0 0 11.150222-8.897423l-5.984711-0.477866z m28.945066-1.501867h3.208534a19.433244 19.433244 0 0 0 0-3.254044 11.150222 11.150222 0 0 0-11.423289-10.945423 11.241244 11.241244 0 0 0-11.423289 10.604089 20.252444 20.252444 0 0 0 0 3.322311 11.195733 11.195733 0 0 0 11.423289 10.604089 10.922667 10.922667 0 0 0 10.899911-7.736889h-6.530844a4.869689 4.869689 0 0 1-4.369067 2.935467c-3.913956 0-4.983467-4.209778-5.256533-5.916444h13.744355l-0.273067 0.386844z m-8.942933-8.942933c3.322311 0 4.551111 3.026489 5.097245 4.983466h-9.739378c0.500622-2.048 1.774933-4.983467 5.074489-5.051733l-0.432356 0.068267z m-127.567644 8.942933h3.254044a38.798222 38.798222 0 0 0 0-3.254044 11.355022 11.355022 0 0 0-11.4688-10.945423 11.241244 11.241244 0 0 0-11.309511 10.604089 16.201956 16.201956 0 0 0 0 3.322311 11.195733 11.195733 0 0 0 11.309511 10.604089 10.740622 10.740622 0 0 0 10.808889-7.736889h-6.485333a4.733156 4.733156 0 0 1-4.391823 2.935467c-3.913956 0-4.983467-4.209778-5.233777-5.916444h13.7216l-0.2048 0.386844z m-8.942934-8.942933a5.5296 5.5296 0 0 1 5.074489 4.983466h-9.671111c0.500622-2.048 2.116267-4.983467 5.028978-5.051733l-0.432356 0.068267z m70.678756-3.936711h-6.917689a15.177956 15.177956 0 0 0-4.801422-0.978489 11.286756 11.286756 0 0 0-11.264 10.604089 20.252444 20.252444 0 0 0 0 3.322311c0.341333 5.916444 5.279289 10.626844 11.264 10.626844a12.060444 12.060444 0 0 0 5.984711-1.615644l5.757155 1.615644V156.285156z m-11.741867 18.750577c-4.9152 0-5.279289-6.576356-5.279289-6.576355a7.122489 7.122489 0 0 1 0-1.706667s0-6.530844 5.279289-6.599111c4.801422 0 5.233778 6.599111 5.233778 6.599111v1.706667c0.022756 0-0.4096 6.485333-5.233778 6.576355z m37.387378-12.4928a8.237511 8.237511 0 0 0-7.5776-7.236266 8.920178 8.920178 0 0 0-7.395556 2.980977l-6.803911-2.002488v23.597511h6.326045v-13.494045c0-6.667378 5.347556-6.166756 5.347555-6.166755 4.050489 0 3.777422 5.484089 3.777423 5.484089v14.176711h6.417066v-14.176711c0-1.774933-0.091022-3.163022-0.091022-3.163023z" fill="#DBDCDC" p-id="6536"></path><path d="M1006.842311 200.248889L11.377778 259.640889l5.848178 564.542578L1012.622222 763.107556 1006.842311 200.248889z" fill="#E62318" p-id="6537"></path><path d="M874.313956 571.5968v-43.076267l-136.078223 7.714134v-21.640534l-65.581511 3.731911v21.663289l-136.123733 7.759645v42.962489l136.123733-7.623111v94.845155l65.581511-3.754667V579.356444z" fill="#FFFFFF" p-id="6538"></path><path d="M536.484978 492.157156v43.008l46.739911-2.6624v-0.113778l120.581689-59.392 123.266844 45.442844v0.182045l47.286045-2.776178v-43.030756l-31.5392 1.797689-81.396623-29.991822 107.815823-53.088711v-74.524445l-65.627023 3.731912-150.9376 8.533333v-0.045511l-52.383288-24.962845-66.855823 106.222934 55.478045 20.138666 35.703466-56.706844 178.972445-10.171733v10.376533l-99.919645 49.174755-77.528177-28.603733-26.191645 39.981511 46.125511 17.066667-78.552177 38.661689-31.038578 1.752178z m302.398578 94.116977l-65.649778 3.663645 47.945955 79.553422 65.490489-3.6864-47.786666-79.530667z m-302.125512 99.510045l65.627023-3.618134 43.736177-84.855466-65.672533 3.800178-43.690667 84.673422z m-155.943822-96.551822l51.905422 101.899377 72.658489-3.731911-51.905422-101.853866-72.658489 3.6864z m-68.1984-74.569956l-53.088711-66.833067-72.408178 4.096 53.020445 66.787556 72.476444-4.050489z m0-83.490133l-53.088711-66.787556-72.408178 3.982222 53.020445 66.901334 72.476444-4.096z" fill="#FFFFFF" p-id="6539"></path><path d="M375.125333 577.376711l121.196089-6.872178v-42.962489l-80.531911 4.5056v-189.303466l-65.604267 3.640889v189.417244l-191.647288 10.922667v43.030755l133.302044-7.509333-59.050667 77.641956-72.476444 4.232533v43.008l121.6512-6.985956v-0.182044z" fill="#FFFFFF" p-id="6540"></path><path d="M666.988089 22.755556c100.329244 0 150.687289 0 201.750755 16.110933a193.9456 193.9456 0 0 1 116.076089 115.484444C1001.244444 206.324622 1001.244444 256.682667 1001.244444 356.989156V666.965333c0 100.329244 0 150.710044-16.133688 201.773511a193.718044 193.718044 0 0 1-115.461689 116.053334C817.675378 1001.244444 767.317333 1001.244444 666.988089 1001.244444H356.989156c-100.329244 0-150.687289 0-201.750756-16.133688a193.7408 193.7408 0 0 1-116.053333-115.438934C22.755556 817.675378 22.755556 767.294578 22.755556 666.965333V356.989156c0-100.306489 0-150.664533 16.133688-201.728a193.809067 193.809067 0 0 1 115.461689-116.076089C206.301867 22.755556 256.659911 22.755556 356.989156 22.755556h309.998933m0-22.755556H356.989156C254.179556 0 202.797511 0 147.478756 17.499022A217.315556 217.315556 0 0 0 17.521778 147.478756C0 202.820267 0 254.225067 0 356.989156V666.965333c0 102.855111 0 154.2144 17.521778 209.555911a217.383822 217.383822 0 0 0 129.979733 129.956978c55.318756 17.521778 106.7008 17.521778 209.5104 17.521778h309.976178c102.832356 0 154.191644 0 209.533155-17.521778a217.383822 217.383822 0 0 0 129.979734-129.956978C1024 821.179733 1024 769.797689 1024 666.965333V356.989156c0-102.786844 0-154.168889-17.521778-209.5104A217.4976 217.4976 0 0 0 876.498489 17.476267C821.179733 0 769.797689 0 666.988089 0z" fill="#D8D8D8" p-id="6541"></path></svg>
